<?xml version="1.0" standalone="no"?>
<!DOCTYPE svg PUBLIC "-//W3C//DTD SVG 1.1//EN" "http://www.w3.org/Graphics/SVG/1.1/DTD/svg11.dtd" >
<svg xmlns="http://www.w3.org/2000/svg">
<metadata>
Created by FontForge 20120731 at Thu Nov 10 17:22:53 2016
 By admin
</metadata>
<defs>
<font id="iconfont" horiz-adv-x="1024" >
  <font-face 
    font-family="iconfont"
    font-weight="500"
    font-stretch="normal"
    units-per-em="1024"
    panose-1="2 0 6 3 0 0 0 0 0 0"
    ascent="896"
    descent="-128"
    x-height="792"
    bbox="-0.75 -223 1808 896.25"
    underline-thickness="0"
    underline-position="0"
    unicode-range="U+0078-E6D2"
  />
<missing-glyph 
 />
    <glyph glyph-name=".notdef" 
 />
    <glyph glyph-name=".notdef" 
 />
    <glyph glyph-name=".null" horiz-adv-x="0" 
 />
    <glyph glyph-name="nonmarkingreturn" horiz-adv-x="341" 
 />
    <glyph glyph-name="x" unicode="x" horiz-adv-x="1001" 
d="M281 543q-27 -1 -53 -1h-83q-18 0 -36.5 -6t-32.5 -18.5t-23 -32t-9 -45.5v-76h912v41q0 16 -0.5 30t-0.5 18q0 13 -5 29t-17 29.5t-31.5 22.5t-49.5 9h-133v-97h-438v97zM955 310v-52q0 -23 0.5 -52t0.5 -58t-10.5 -47.5t-26 -30t-33 -16t-31.5 -4.5q-14 -1 -29.5 -0.5
t-29.5 0.5h-32l-45 128h-439l-44 -128h-29h-34q-20 0 -45 1q-25 0 -41 9.5t-25.5 23t-13.5 29.5t-4 30v167h911zM163 247q-12 0 -21 -8.5t-9 -21.5t9 -21.5t21 -8.5q13 0 22 8.5t9 21.5t-9 21.5t-22 8.5zM316 123q-8 -26 -14 -48q-5 -19 -10.5 -37t-7.5 -25t-3 -15t1 -14.5
t9.5 -10.5t21.5 -4h37h67h81h80h64h36q23 0 34 12t2 38q-5 13 -9.5 30.5t-9.5 34.5q-5 19 -11 39h-368zM336 498v228q0 11 2.5 23t10 21.5t20.5 15.5t34 6h188q31 0 51.5 -14.5t20.5 -52.5v-227h-327z" />
    <glyph glyph-name="biaoqing" unicode="&#xe657;" 
d="M512 747q92 0 174 -35t142.5 -95.5t95.5 -142.5t35 -174q0 -93 -35 -174.5t-95.5 -142.5t-142.5 -95.5t-174 -34.5q-93 0 -174.5 34.5t-142.5 95.5t-96.5 142.5t-35.5 174.5q0 92 35.5 174t96.5 142.5t142.5 95.5t174.5 35zM673.5 525q-29.5 0 -50 -24.5t-20.5 -59.5
q0 -36 20.5 -60.5t50 -24.5t50 24.5t20.5 60.5q0 35 -20.5 59.5t-50 24.5zM342 523q-29 0 -49 -24.5t-20 -59.5q0 -36 20 -60t49 -24t49.5 24t20.5 60q0 35 -20.5 59.5t-49.5 24.5zM516 -33q54 0 103 19.5t87.5 53.5t66 79t38.5 96v5q0 8 -6 15t-15 7h-548q-10 0 -17.5 -7
t-5.5 -15q2 -10 3 -14t2 -6q14 -50 41.5 -92t65 -73.5t84.5 -49.5t101 -18z" />
    <glyph glyph-name="zhuye" unicode="&#xe60b;" horiz-adv-x="1000" 
d="M827 403v241h-125v-111l-187 194l-439 -454h125v-329h167v164h292v-164h167v329h125z" />
    <glyph glyph-name="tuichu" unicode="&#xe60c;" horiz-adv-x="1000" 
d="M535 755h-44v-394h44v394zM681 683v-38q96 -48 154.5 -141t58.5 -205q0 -104 -51 -192.5t-138.5 -140.5t-191 -52t-191.5 52t-139 140.5t-51 192.5q0 109 55.5 200t147.5 140v40q-107 -52 -172.5 -154t-65.5 -226q0 -114 56 -210.5t151.5 -153t208.5 -56.5t209 56.5
t151.5 153t55.5 210.5q0 127 -68.5 231t-179.5 153z" />
    <glyph glyph-name="dingdanliebiao" unicode="&#xe600;" horiz-adv-x="1000" 
d="M874 540l-184 184q-8 8 -21 8h-262q-12 0 -21 -8.5t-9 -20.5v-112h-171q-12 0 -21 -8.5t-9 -21.5v-630q0 -12 9 -21t21 -9h447q12 0 21 9t9 21v112h171q11 0 20 8.5t9 20.5v447q0 12 -9 21zM684 688l154 -154h-154v154zM653 -69h-447v630h256q-8 -4 -8 -12v-171
q0 -6 4 -10.5t10 -4.5h171q10 0 14 8v-440zM484 392v155l153 -155h-153zM854 72h-171v152h100q6 0 10 4.5t4 10.5t-4 10.5t-10 4.5h-100v56h102q6 0 10.5 4.5t4.5 10.5t-4.5 10.5t-10.5 4.5h-102v38q0 10 -7 18h106q6 0 10 4t4 10t-4 10.5t-10 4.5h-133v-2l-159 160
q-9 8 -22 8h-61v112h255q-7 -5 -7 -13v-171q0 -6 4 -10.5t10 -4.5h171q9 0 14 8v-440zM582 113h-306q-6 0 -10 -5t-4 -10.5t4 -10t10 -4.5h306q6 0 10.5 4.5t4.5 10t-4.5 10.5t-10.5 5zM582 284h-306q-6 0 -10 -4.5t-4 -10.5t4 -10t10 -4h306q6 0 10.5 4t4.5 10t-4.5 10.5
t-10.5 4.5zM582 199h-306q-6 0 -10 -5t-4 -11t4 -10t10 -4h306q6 0 10.5 4t4.5 10t-4.5 11t-10.5 5z" />
    <glyph glyph-name="lianxiwomen" unicode="&#xe62b;" horiz-adv-x="1000" 
d="M500.5 245q77.5 0 132.5 55t55 132.5t-55 132.5t-132.5 55t-132.5 -55t-55 -132.5t55 -132.5t132.5 -55zM500 589q65 0 110.5 -45.5t45.5 -110.5t-45.5 -110.5t-110.5 -45.5t-110.5 45.5t-45.5 110.5t45.5 110.5t110.5 45.5zM500 800q-102 0 -188 -50t-136.5 -136
t-50.5 -189q0 -53 13.5 -108.5t41 -110.5t55.5 -102.5t70.5 -102.5t71.5 -90.5t72 -85.5l7 -7t18 -11.5t25 -6.5h2q12 0 25 6.5t18 11.5l7 7q43 50 72.5 85.5t71.5 90.5t70 102.5t55.5 102.5t41 110.5t13.5 108.5q0 103 -50.5 189t-136.5 136t-188 50zM504 -134q-1 -1 -5 -3
q0 1 -2 3q-1 1 -2 1q-34 40 -53.5 63t-56.5 69t-59.5 79.5t-52 82t-46 88.5t-28.5 87t-12 89q0 129 92 221t221 92t221 -92t92 -221q0 -42 -12 -89t-28.5 -87t-46 -88.5t-52 -82t-59.5 -80t-57 -69.5t-54 -63z" />
    <glyph glyph-name="fanhuidingbu" unicode="&#xe637;" 
d="M39 812h946v-158h-946v158zM985 103h-237v-315h-472v315h-237l473 473z" />
    <glyph glyph-name="xinfeng" unicode="&#xe60d;" 
d="M953 706h-880q-29 0 -49.5 -21t-20.5 -50v-616q0 -29 20.5 -49.5t49.5 -20.5h880q29 0 49.5 20.5t20.5 49.5v616q0 29 -20.5 50t-49.5 21zM910 647l-382 -328q-10 -10 -13 -10t-13 10l-382 328h790zM965 40l-246 263q-10 11 -24.5 11t-24.5 -10.5t-10 -25t10 -24.5
l222 -247h-750l223 247q10 10 10 24.5t-10.5 25t-24.5 10.5t-25 -11l-254 -268v562l392 -327q17 -18 31 -26.5t33 -8.5q13 0 24.5 5.5t16.5 10t20 19.5l387 327v-557z" />
    <glyph glyph-name="faheqia" unicode="&#xe6d2;" 
d="M967 543q0 69 -64 90l-551 174q-27 8 -50.5 -8.5t-23.5 -46.5v-142h-145q-32 0 -54.5 -22.5t-22.5 -54.5v-670q0 -31 22.5 -53.5t54.5 -22.5h758q32 0 54 22.5t22 53.5v665q0 7 -1 15h1zM901 -99q0 -19 -14 -33t-34 -14h-682q-20 0 -34 14t-14 33v594q0 20 13.5 34
t33.5 14h108v0h3h572q20 0 34 -14t14 -34v-594zM610 409q-67 0 -98 -38q-32 38 -98 38q-56 0 -96 -45t-40 -109q0 -95 88 -206q34 -43 74.5 -74.5t71.5 -31.5q38 0 94 51.5t97.5 126.5t41.5 134q0 64 -39.5 109t-95.5 45zM512 14q-23 0 -64 37.5t-75 95t-34 104.5
q0 40 25 68.5t61 28.5h19.5t16 -2.5t16.5 -8.5t14 -16q15 -23 21 -23t21 23q12 19 26 23t40 4q35 0 60 -28.5t25 -68.5q0 -42 -33 -100t-74.5 -97.5t-64.5 -39.5z" />
    <glyph glyph-name="zuoshouqi" unicode="&#xe668;" 
d="M192 812h-192v-1024h192q53 0 90.5 37.5t37.5 90.5v768q0 53 -37.5 90.5t-90.5 37.5zM256 44h-64l-128 256l128 256h64l-128 -256z" />
    <glyph glyph-name="guanwang" unicode="&#xe6af;" 
d="M904 207q-15 -109 -118.5 -175.5t-243.5 -66.5q-205 0 -293 94q-6 7 -15.5 17t-13.5 14t-10 11t-10 13t-8 14q-4 -6 -11 -16t-19.5 -40t-15.5 -60q-9 -94 55 -98q56 -3 121.5 14t119.5 43q8 -7 -19 -25.5t-78 -38.5t-101 -29q-75 -13 -128 35q-27 24 -29.5 73.5
t13.5 102.5t29.5 88t22.5 52l13.5 27t38.5 65t63.5 91t86.5 94.5t108 85.5q-56 -19 -110.5 -52.5t-93.5 -67.5t-69.5 -65t-45.5 -51l-15 -20q12 61 46.5 132.5t74.5 103.5q127 104 294 104q76 0 131.5 -21t122.5 -70q57 -43 82 -117.5t25 -196.5h-501q0 -3 -0.5 -8.5
t0.5 -20.5t4.5 -28.5t12 -29.5t21.5 -26q21 -16 42 -23.5t32 -6.5h10q41 -4 76 18q15 10 26 25.5t14 25.5l3 11zM646 377q1 6 2.5 15.5t-2 32t-17.5 35.5q-23 22 -48 32.5t-39 10.5h-14q-1 -1 -7 0t-19 -1.5t-26 -6.5t-27.5 -14t-23.5 -25q-12 -17 -17 -36.5t-4 -30.5l1 -11
zM904 563q1 3 2.5 8t5.5 19.5t6.5 28.5t2.5 32t-3 33t-13 28.5t-26 21.5q-4 1 -11.5 3t-32.5 2.5t-52.5 -5t-69 -24.5t-83.5 -52q-77 -58 -73 -48q4 8 53 53q2 1 5 4t13 11t21 15.5t27.5 17t33 17.5t38 15.5t42 11t44.5 3.5t47 -5q27 -6 39 -27.5t10.5 -48.5t-7 -53
t-12.5 -43z" />
    <glyph glyph-name="liuyan" unicode="&#xe60e;" 
d="M66 781l1 -505h94v-189l183 183l-29 29l-113 -113v131h-95v423h610v-144h41v185h-692zM391 549h598v-506h-92v-191l-192 191h-314v506zM432 84h290l134 -134v134h92v424h-516v-424z" />
    <glyph glyph-name="QQ" unicode="&#xe6bb;" 
d="M971 143l-2 18l-3 17l-3 9l-2 9l-3 9l-4 10l-3 10l-4 9l-8 16l-6 14l-7 13l-5 11l-7 11l-5 9l-10 15l-12 19l-3 5l-1 2v1l2 7l3 6l2 11l2 6v6v5v5v6l-1 4l-2 10l-2 9l-3 8l-3 8l-4 7l-3 7l-3 6l-6 9l-2 3v2l-3 18l-1 11l-2 14l-3 15l-4 17l-3 9l-2 8l-3 9l-3 10l-3 9
l-4 10l-8 19l-5 9l-6 10l-5 9l-6 10l-7 10l-7 8l-8 10l-8 8l-8 8l-9 9l-5 3l-5 4l-11 7l-12 8l-12 7l-13 7l-13 6l-13 6l-14 4l-15 4l-13 4l-15 3l-13 4l-15 1l-14 2l-15 2h-15h-14h-14l-14 -1l-14 -2l-14 -2l-13 -2l-14 -3l-13 -3l-13 -4l-12 -4l-12 -4l-12 -6l-12 -5
l-10 -6l-10 -6l-10 -7l-10 -8l-8 -7l-12 -12l-10 -10l-10 -11l-9 -11l-9 -11l-7 -10l-7 -11l-4 -5l-3 -6l-7 -10l-5 -10l-5 -10l-4 -10l-4 -9l-3 -9l-3 -9l-4 -8l-4 -16l-3 -15l-1 -12l-2 -11v-8v-7v-6l-3 -3l-3 -4l-2 -4l-2 -4l-2 -9l-3 -9v-7l-1 -6v-6l-6 -8l-4 -9l-3 -8
l-2 -7l-2 -7l-2 -6v-6v-6v-5l1 -4l2 -7l1 -6l-3 -3l-9 -6l-12 -11l-7 -7l-7 -6l-5 -5l-4 -5l-9 -9l-8 -10l-7 -8l-8 -11l-7 -11l-7 -12l-7 -11l-5 -11l-5 -11l-4 -10l-4 -11l-3 -11l-3 -11l-3 -10l-2 -10l-1 -9l-2 -10l-1 -18v-17v-7l1 -7l2 -13l1 -6l2 -5l2 -6l1 -3l3 -7
l2 -2l2 -3h1h1h1h7l7 2l7 3l6 4l6 4l5 5l6 5l5 6l5 6l4 6l4 4l2 6l5 8l2 4l1 2v3l1 2h1l2 1h1v-1h1h1l3 -12l2 -10l4 -10l4 -9l4 -9l5 -8l4 -9l4 -7l5 -7l3 -6l10 -12l9 -11l8 -8l8 -7l7 -6l11 -10l4 -2l2 -2v-1l-1 -1h-1h-2l-8 -1l-7 -1l-6 -1l-7 -1l-5 -2l-6 -2l-5 -2
l-4 -3l-5 -1l-3 -3l-3 -2l-4 -3l-4 -5l-2 -3l-2 -2l-3 -6l-2 -5l-1 -5l-1 -4v-6v-3l-1 -4v-4l-1 -4v-3l1 -4l1 -4l2 -7l2 -3l2 -3l2 -3l3 -3l3 -3l2 -3l7 -5l8 -4l8 -5l9 -3l9 -4l11 -2l10 -4l11 -2l12 -2l11 -2l12 -1l24 -3h24h23h10h10h11l9 1l9 1l8 1l13 2l9 3l9 2l17 7
l8 3l7 3l12 7l10 6l8 5l6 5l9 -1l7 -1l14 -1h6h6l4 -1l4 -1l7 -3l8 -2l14 -5l15 -5l14 -4l14 -3l15 -4l15 -2l15 -2l14 -2l14 -1l15 -1h13h14h13l13 1l13 1l12 2l11 3l11 2l11 3l5 1l5 2l9 3l8 4l8 4l8 4l6 5l3 3l3 4l4 4l4 6l1 3l1 3l2 3l1 3v4l1 3l-1 5l-1 4l-2 5l-1 4
l-3 5l-3 5l-3 3l-4 4l-9 7l-10 8l-10 5l-10 6l-23 12l-6 3l-2 2l-1 1l12 11l5 6l4 5l8 12l7 11l6 11l6 10l8 20l7 16l4 12l2 4l2 3l2 2h1h1l6 -12l5 -12l4 -7l4 -5l4 -7l5 -7l4 -5l3 -2l2 -3l2 -1l3 -2l4 -2l3 -1h2h2l2 1l4 1l3 2l3 2l3 3l3 4l2 3l3 5l2 3l2 6l2 4l3 11
l2 12l2 14l1 8v6v7v9z" />
    <glyph glyph-name="dingdan" unicode="&#xe65d;" 
d="M837 -93h-542v56h434q22 0 38 16.5t16 39.5v560h54v-672zM266 75q-12 0 -20 8.5t-8 20t8 19.5t20 8h381q12 0 19.5 -8t7.5 -19.5t-7.5 -20t-19.5 -8.5h-381zM266 299h381q12 0 19.5 -8t7.5 -19.5t-7.5 -20t-19.5 -8.5h-381q-12 0 -20 8.5t-8 20t8 19.5t20 8zM266 467h381
q12 0 19.5 -8t7.5 -19.5t-7.5 -20t-19.5 -8.5h-381q-12 0 -20 8.5t-8 20t8 19.5t20 8zM428 635h219q12 0 19.5 -8t7.5 -19.5t-7.5 -20t-19.5 -8.5h-219q-11 0 -19 8.5t-8 20t8 19.5t19 8zM837 635h-54v56q0 23 -16 39.5t-38 16.5h-543q-22 0 -38 -16.5t-16 -39.5v-672
q0 -23 16 -39.5t38 -16.5h55v-56q0 -23 15.5 -39.5t38.5 -16.5h542q23 0 38.5 16.5t15.5 39.5v672q0 23 -15.5 39.5t-38.5 16.5v0z" />
    <glyph glyph-name="lianxiwomen1" unicode="&#xe62c;" 
d="M512 802q-102 0 -195 -40t-160 -107t-107 -160t-40 -195t40 -195t107 -160t160 -107t195 -40t195 40t160 107t107 160t40 195t-40 195t-107 160t-160 107t-195 40zM641 381q-10 4 -13 18t-2 26l2 12q1 4 -3 5t-8 0l-4 -2q-34 -15 -130 -111.5t-111 -129.5l-2 -12
q1 -4 5 -3q6 1 14 2t23 -2t19 -13q1 -5 1.5 -14t-1.5 -35t-7.5 -50.5t-21 -56t-39.5 -55.5q-6 1 -15.5 3.5t-34 14t-44.5 27t-37.5 44.5t-20.5 64q1 3 2.5 9.5t13.5 31t31.5 54.5t61 80.5t96.5 107.5v0v0q57 55 107.5 96.5t80.5 61.5t54 31.5t31.5 13.5t9.5 2q35 -3 64 -20
t44.5 -38.5t26.5 -43t15 -36.5l3 -14q-24 -24 -55 -39.5t-57.5 -21t-49 -8t-36.5 -0.5z" />
    <glyph glyph-name="huifu" unicode="&#xe601;" 
d="M998 649l-44 -45l-148 150l45 45q12 12 28.5 13t28.5 -11l92 -94q12 -12 11.5 -29t-13.5 -29zM582 227l-148 150l350 354l148 -150zM562 206l-207 -60l59 210zM196 669q-37 0 -60 -31.5t-23 -72.5v-588q0 -39 22.5 -61.5t61.5 -22.5h588q38 0 62 24t24 63v399l103 102
v-525q0 -65 -50.5 -116.5t-114.5 -51.5h-647q-64 0 -109 46t-45 111v654q0 66 52 120.5t116 54.5h504l-93 -105h-391z" />
    <glyph glyph-name="moban" unicode="&#xe602;" 
d="M64 748v-256h384v256h-384zM384 556h-256v128h256v-128zM64 428v-192h384v192h-384zM384 300h-256v64h256v-64zM512 748v-512h448v512h-448zM896 300h-320v384h320v-384zM64 172v-320h896v320h-896zM896 -84h-768v192h768v-192z" />
    <glyph glyph-name="dian" unicode="&#xe620;" 
d="M352 287.5q0 -66.5 47 -113t113.5 -46.5t113 46.5t46.5 113t-46.5 113.5t-113 47t-113.5 -47t-47 -113.5z" />
    <glyph glyph-name="mobile" unicode="&#xe60f;" 
d="M736 812h-448q-40 0 -68 -28t-28 -68v-832q0 -40 28 -68t68 -28h448q40 0 68 28t28 68v832q0 40 -28 68t-68 28zM384 764h256v-32h-256v32zM512 -148q-27 0 -45.5 18.5t-18.5 45.5t18.5 45.5t45.5 18.5t45.5 -18.5t18.5 -45.5t-18.5 -45.5t-45.5 -18.5zM768 44h-512v640
h512v-640z" />
    <glyph glyph-name="infogroup" unicode="&#xe603;" 
d="M896 616v67h-64v64h-52h-714v-577h64v-64h61v-68h585l181 -185v763h-61zM796 631h47v-586l-47 49v537zM780 632v-1v-521l-108 111h-492h-63v475h663v-64v0zM181 157v49h484l48 -50h-470v1h-62zM243 90v51h485l50 -51h-535zM906 -21l-47 48v538h47v-586z" />
    <glyph glyph-name="edit" unicode="&#xe623;" 
d="M507 135l67 67l-87 87l-66 -67v-32h54v-55h32zM759 547q-9 9 -19 -1l-200 -200q-10 -9 -0.5 -18.5t18.5 0.5l200 200q10 10 1 19zM805 207v-108q0 -68 -48.5 -116.5t-116.5 -48.5h-475q-68 0 -116.5 48.5t-48.5 116.5v475q0 68 48.5 116.5t116.5 48.5h475q36 0 67 -14
q8 -4 10 -14q2 -9 -5 -16l-28 -28q-8 -8 -18 -5q-13 4 -26 4h-475q-38 0 -65 -27t-27 -65v-475q0 -38 27 -65t65 -27h475q38 0 64.5 27t26.5 65v72q0 7 6 12l36 37q9 9 20.5 4t11.5 -17v0zM750 629l164 -164l-384 -384h-164v164zM1003 554l-52 -53l-165 165l53 52
q16 16 39 16t39 -16l86 -87q16 -16 16 -38.5t-16 -38.5v0z" />
    <glyph glyph-name="xinwenzhongxin" unicode="&#xe62d;" 
d="M528.5 -158q-96.5 0 -184.5 38q-86 36 -151.5 101.5t-101.5 150.5q-37 88 -37 184.5t37 184.5q36 85 101.5 150.5t151.5 101.5q88 38 184.5 38t184.5 -38q85 -36 150.5 -101.5t101.5 -150.5q37 -88 37 -184.5t-37 -184.5q-36 -85 -101.5 -150.5t-150.5 -101.5
q-88 -38 -184.5 -38zM528 758q-90 0 -171.5 -35t-140.5 -94t-94 -141t-35 -171.5t35 -171.5t94 -141t140.5 -94t171.5 -35t171.5 35t140.5 94t94 141t35 171.5t-35 171.5t-94 141t-140.5 94t-171.5 35zM572 60q-4 0 -7 2q-10 4 -10 15v174q0 7 5 11.5t12 4.5h174
q11 0 15 -10t-3 -18l-175 -174q-5 -5 -11 -5zM588 235v-119l119 119h-119zM484 193zM441 60h-131q-7 0 -11.5 5t-4.5 12v479q0 7 4.5 12t11.5 5h436q7 0 11.5 -5t4.5 -12v-305q0 -7 -4 -12l-175 -174q-11 -11 -22.5 0.5t-0.5 22.5l170 170v282h-404v-447h115q7 0 11.5 -5
t4.5 -11.5t-4.5 -11.5t-11.5 -5zM637 440h-218q-7 0 -11.5 5t-4.5 11.5t4.5 11.5t11.5 5h218q7 0 11.5 -5t4.5 -11.5t-4.5 -11.5t-11.5 -5zM637 347h-218q-7 0 -11.5 5t-4.5 11.5t4.5 11.5t11.5 5h218q7 0 11.5 -5t4.5 -11.5t-4.5 -11.5t-11.5 -5z" />
    <glyph glyph-name="biaoqian" unicode="&#xe61e;" 
d="M539.5 696.5q2.5 2.5 5.5 4t5 1.5l2 1h343q20 0 20 -20v-341q0 -10 -6 -16l-421 -421q-13 -16 -29 0l-40.5 40.5t-85 84.5t-96.5 95.5t-83.5 83t-36.5 37.5q-14 15 0 29q420 419 422.5 421.5zM558 728q-24 0 -42 -17q-4 -3 -45.5 -45t-101.5 -102t-117.5 -118
t-104 -104.5t-50.5 -49.5q-15 -19 -13 -35.5t17 -31.5q5 -4 338 -336q35 -35 70 0q48 48 419 420q13 12 13 38v339q0 17 -13.5 29.5t-30.5 12.5h-339zM838 535q0 -39 -26.5 -66.5t-64 -27.5t-64.5 27.5t-27 66.5t27 66.5t64.5 27.5t64 -27.5t26.5 -66.5zM747.5 601
q-27.5 0 -47 -19.5t-19.5 -47t19.5 -47t47 -19.5t47 19.5t19.5 47t-19.5 47t-47 19.5z" />
    <glyph glyph-name="huiyuanqia" unicode="&#xe604;" 
d="M417 363l-73 -253h-30l-73 253h35l52 -191h2l52 191h35zM533 113h-33v250h33v-250zM784 287q0 -35 -20.5 -55.5t-56.5 -20.5h-42v-98h-34v250h76q36 0 56.5 -20.5t20.5 -55.5zM751 287q0 28 -13 38t-40 10h-33v-96h33q27 0 40 10t13 38zM920 31q0 -23 -16.5 -39
t-39.5 -16h-703q-23 0 -39.5 16t-16.5 39v537q0 23 16.5 39.5t39.5 16.5h703q23 0 39.5 -16.5t16.5 -39.5v-537zM894 474h-764v-445q0 -12 8.5 -20.5t20.5 -8.5h706q12 0 20.5 8.5t8.5 20.5v445zM894 499v71q0 12 -8.5 20.5t-20.5 8.5h-706q-12 0 -20.5 -8.5t-8.5 -20.5v-71
h764z" />
    <glyph glyph-name="zixunxinxi" unicode="&#xe610;" 
d="M825 570h124v-35h-124v35zM825 504h124v-31h-124v31zM825 444h124v-31h-124v31zM887 130q1 -1 5 0t11 -1.5t13.5 -6.5t11.5 -14t6 -25q0 -2 -0.5 -5.5t-3 -11.5t-7 -14.5t-14 -11.5t-22.5 -5q-2 -1 -5 -0.5t-11 3t-14.5 7t-11.5 14.5t-4 23v1v5.5t3 11t7 13.5t13.5 11
t22.5 6zM541 570h123v-35h-123v35zM478 223l125 -48q-4 1 -10 0.5t-22 -4.5t-28.5 -13t-22.5 -29t-10 -48v0h-32v142v0zM730 223v485q-9 17 -32 17h-188q-32 0 -32 -18v-484h32v376h188v-376h32zM541 504h123v-31h-123v31zM541 444h123v-31h-123v31zM603 130h5t11.5 -2.5
t15 -7t11.5 -14.5t5 -24v-5t-3 -11t-7.5 -14t-14.5 -11.5t-23 -5.5q-1 0 -5 -0.5t-11 2t-14 6.5t-12 14.5t-5 24.5v5t2.5 11t7 14t14 11.5t23.5 6.5zM154 130h6t13.5 -2t17 -6.5t13.5 -14.5t6 -25q0 -2 -0.5 -5t-4.5 -11t-9.5 -14.5t-16.5 -11.5t-25 -6h-5.5t-12 2.5
t-15 6.5t-12 14.5t-5.5 24.5q-1 0 0.5 11t13.5 23t36 14zM305 428v-34l-121 34v30zM322 488v-30l-126 30v33zM339 552v-31l-125 31v32zM887 176q4 1 10.5 0.5t22.5 -5t28.5 -13.5t22.5 -28.5t10 -47.5q-2 0 0 -9.5t-3 -24t-12.5 -28t-28 -23.5t-50.5 -10q-4 -1 -10 -0.5
t-22.5 4.5t-29 12.5t-22.5 29t-10 49.5l-32 -1v-125q0 -2 1.5 -4.5t9.5 -6.5t21 -5h188q2 0 4 -0.5t7 -0.5t9.5 1.5t7.5 5t3 9.5v268h-251zM761 223l126 -47q0 -1 -9.5 1t-23.5 -3t-28 -12.5t-23.5 -28.5t-9.5 -51h-32v141v0zM1012 223v486q1 2 0.5 4.5t-8 7t-22.5 4.5h-188
q-33 0 -33 -16v-486h31v377h187l2 -377h31zM603 175h10.5t22.5 -4.5t29 -13t23 -28t10 -47.5q1 -4 0.5 -10t-4.5 -22.5t-13 -29t-29 -23t-49 -10.5q-3 0 -9 0.5t-21.5 5.5t-27.5 14t-22.5 28.5t-12.5 45.5h-32v-125q6 -14 32 -14h188q31 -2 31 14l1 267h-252zM162 192
q4 -1 10.5 -2t23 -7t29.5 -15.5t23.5 -28.5t10.5 -45v-11.5t-5 -26t-13.5 -32.5t-29 -26t-49.5 -12q-5 1 -12 1.5t-25.5 6.5t-32.5 15.5t-25.5 30.5t-11.5 49l-31 25l-16 -80q-1 -39 13 -47l189 -61q1 0 4.5 -0.5t9.5 1t12.5 4t12.5 9.5t10 17l63 228l-252 71zM70 256
l92 -65q-4 1 -10.5 1.5t-24 -2.5t-31 -12t-26 -32t-15.5 -57l-31 25zM284 195l38 -10l111 431q17 48 0 62l-189 62q-34 7 -48 -15l-126 -469l40 -13l98 373l173 -52z" />
    <glyph glyph-name="qian" unicode="&#xe664;" 
d="M580 -210q-26 -2 -57.5 -2t-50.5 1l-19 1q-7 1 -19.5 1.5t-49 7t-69.5 17t-73.5 32.5t-69.5 50.5t-49 75.5t-20 104t18.5 113t48 100t66 84t72 69t65.5 50.5t48.5 32l18.5 10.5h155q6 -5 17.5 -13t45 -35.5t63.5 -56.5t67 -72.5t64 -86.5t45 -96.5t18 -103.5
q0 -40 -11.5 -75.5t-31 -61.5t-44.5 -48t-52.5 -36.5t-55.5 -26t-53 -18t-44.5 -10.5t-31 -5.5l-11.5 -1.5v0zM440 555v55h155v-55h-155v0zM592 628h-149l-80 180q47 -37 76 -37q13 0 32.5 9.5t32.5 18.5l14 10q46 -38 74 -38q13 0 33 10t33 19l13 10l-79 -182v0zM471 -51
h70v68h93v55h-93v30h93v55h-66l79 156h-77l-51 -105q-8 -19 -13 -35q-4 15 -13 35l-50 105h-77l78 -156h-65v-55h92v-30h-92v-55h92v-68v0z" />
    <glyph glyph-name="ying1" unicode="&#xe63c;" 
d="M743 641v-57h-141v57h-193v-57h-137v57h-272v110h272v61h137v-61h193v61h141v-61h281v-110h-281v0zM721 247v66h-422v-66h422v0zM795 -76v79h-571v-79h571v0zM167 151v258h686v-258h-686v0zM84 -212v315h852v-315h-141v39h-571v-39h-140v0zM26 331v236h967v-236h-123v126
h-721v-126h-123v0z" />
    <glyph glyph-name="shijian" unicode="&#xe69e;" 
d="M512 812q-104 0 -199 -40.5t-163.5 -109t-109 -163.5t-40.5 -199t40.5 -199t109 -163.5t163.5 -109t199 -40.5t199 40.5t163.5 109t109 163.5t40.5 199t-40.5 199t-109 163.5t-163.5 109t-199 40.5zM512 -165q-95 0 -181 36.5t-148.5 99t-99 148.5t-36.5 181t36.5 181
t99 148.5t148.5 99t181 36.5t181 -36.5t148.5 -99t99 -148.5t36.5 -181t-36.5 -181t-99 -148.5t-148.5 -99t-181 -36.5zM768 300h-233v303q0 9 -6.5 16t-16.5 7t-16.5 -7t-6.5 -16v-326q0 -10 6.5 -17t16.5 -7h256q10 0 16.5 7t6.5 16.5t-6.5 16.5t-16.5 7z" />
    <glyph glyph-name="mima" unicode="&#xe64a;" 
d="M750 407h-66q0 79 -54 133.5t-132 54.5t-131.5 -54.5t-53.5 -133.5h-66q0 63 33.5 122t92 95.5t126 36.5t126 -36.5t92 -95.5t33.5 -122zM789 298q0 27 -19.5 46.5t-46.5 19.5h-443q-28 0 -47.5 -19.5t-19.5 -46.5v-316q0 -27 19.5 -46.5t47.5 -19.5h443q27 0 46.5 19.5
t19.5 46.5v316zM555 51q0 -20 -15 -35t-35 -15h-7q-21 0 -35.5 15t-14.5 35v135q0 21 14.5 35.5t35.5 14.5h7q21 0 35.5 -14.5t14.5 -35.5v-135z" />
    <glyph glyph-name="dianhua" unicode="&#xe6bc;" 
d="M994 46l-4 6l-11 12q-12 14 -43 40q-44 37 -81 61l-50 32l-22 11q-17 8 -37 1q-16 -5 -24 -19l-18 -25q-3 -7 -7 -14q-4 -6 -13 -24.5t-15 -29.5q-8 -14 -22 -24.5t-32.5 -14t-38.5 7.5q-105 60 -177 128q-103 98 -139 178q-8 13 -1.5 38t27.5 35q14 7 36 15.5t32 14.5
q7 5 15 9.5t19 11.5q1 0 4.5 3.5t4.5 3.5q1 2 3 3q19 19 9 44l-3 8q-14 34 -37 72q-18 30 -43 63q-16 22 -33 38t-26 21l-10 5q-9 5 -13 7q-24 10 -51 -2q-17 -6 -32.5 -15.5t-22.5 -15t-27 -21.5q-46 -38 -72 -85t-20 -90q10 -74 91 -204.5t188.5 -233t245 -179
t215.5 -85.5q82 -11 175 75q40 37 57 75q7 14 8.5 30.5t-5.5 32.5z" />
    <glyph glyph-name="xitongshezhi" unicode="&#xe611;" 
d="M882 214q-36 61 -17.5 129.5t80.5 104.5l-88 152q-40 -23 -86 -23q-71 0 -120.5 50t-49.5 121h-176q0 -46 -23 -86q-35 -61 -103.5 -79t-130.5 18l-88 -153q40 -23 63 -63q35 -61 17 -129t-80 -104l88 -152q40 23 86 23q70 0 120 -50t50 -121h176q0 46 23 85
q35 61 103.5 79.5t129.5 -16.5l88 152q-39 23 -62 62zM512.5 119q-75.5 0 -128.5 53t-53 128.5t53 128.5t128.5 53t128.5 -53t53 -128.5t-53 -128.5t-128.5 -53z" />
    <glyph glyph-name="fangjian" unicode="&#xe68a;" 
d="M518 723q8 -1 14 -5t16 -14t10 -11q77 -72 366 -345q25 -24 27 -26q22 -23 -1 -46q-9 -8 -20.5 -7.5t-21.5 10.5q-325 306 -374 352q-17 17 -19.5 17t-20.5 -17q-77 -71 -304 -281q0 -1 -10 -13q15 -3 16 -3h16h17q37 0 37 -37v-339q0 -11 2.5 -13.5t14.5 -2.5h463
q12 0 14.5 2.5t2.5 14.5v293q0 24 14 32q14 9 29.5 1.5t15.5 -22.5q0 -3 0.5 -10.5t0.5 -12.5v-280q0 -32 -1 -48q0 -16 -8 -23.5t-24 -7.5h-178h-368q-27 0 -34 16q-4 8 -4 23v335q0 13 -2.5 15.5t-15.5 2.5h-88q-25 -1 -33 18q-9 19 11 38q18 17 51 47.5t45 41.5
q126 117 225 209q86 80 93 86q1 1 19 10h7zM493 298q0 -7 -5.5 -12.5t-12.5 -5.5h-81q-8 0 -13 5.5t-5 12.5v81q0 8 5 13t13 5h81q7 0 12.5 -5t5.5 -13v-81zM662 298q0 -7 -5 -12.5t-12 -5.5h-81q-8 0 -13 5.5t-5 12.5v81q0 8 5 13t13 5h81q7 0 12 -5t5 -13v-81zM493 134
q0 -8 -5.5 -13t-12.5 -5h-81q-8 0 -13 5t-5 13v81q0 7 5 12.5t13 5.5h81q7 0 12.5 -5.5t5.5 -12.5v-81zM662 134q0 -8 -5 -13t-12 -5h-81q-8 0 -13 5t-5 13v81q0 7 5 12.5t13 5.5h81q7 0 12 -5.5t5 -12.5v-81z" />
    <glyph glyph-name="dazhuanpan" unicode="&#xe626;" 
d="M511.5 -149q-91.5 0 -174.5 35.5t-143 95.5t-96 143.5t-36 174.5t36 174.5t96 143.5t143 95.5t174.5 35.5t174.5 -35.5t143.5 -95.5t96 -143.5t35.5 -174.5t-35.5 -174.5t-96 -143.5t-143.5 -95.5t-174.5 -35.5zM801 589l-289 -289v409q-83 0 -157 -31.5t-131 -87.5
l288 -290h-409q0 -83 31.5 -157t87.5 -131l290 288v-408v0q82 0 156.5 31t130.5 87l-287 290h408v0q0 83 -31.5 157.5t-87.5 131.5z" />
    <glyph glyph-name="sucaiku" unicode="&#xe61b;" 
d="M831 152h-645h-51h-70l114 200h659l121 -200h-59h-69zM816 387h-617h-52h-82l188 274h506l200 -274h-47h-96zM852 117l107 -176h-894l100 176h687z" />
    <glyph glyph-name="yuyin" unicode="&#xe651;" 
d="M511.5 188q69.5 0 118.5 49t49 119v223q0 70 -49 119t-118.5 49t-118.5 -49t-49 -119v-223q0 -70 49 -119t118.5 -49zM819 342v0v0q0 17 -12.5 29.5t-29.5 12.5t-29.5 -12.5t-12.5 -29.5v0q0 -93 -65.5 -158.5t-158 -65.5t-158 65.5t-65.5 158.5v0q0 17 -12 29.5
t-29.5 12.5t-30 -12.5t-12.5 -29.5v0v0q0 -116 76.5 -202.5t189.5 -101.5v-101h-140q-17 0 -29.5 -12.5t-12.5 -29.5t12.5 -29.5t29.5 -12.5h363q18 0 30 12.5t12 29.5t-12 29.5t-30 12.5h-139v101q113 15 189 101.5t76 202.5z" />
    <glyph glyph-name="shangyi" unicode="&#xe621;" 
d="M512 521l-206 -206h132l1 -235l146 -1v236h133l-206 206v0zM512 521z" />
    <glyph glyph-name="xiayi" unicode="&#xe622;" 
d="M512 79l206 206h-132l-1 235l-146 1v-236h-133l206 -206v0zM512 79z" />
    <glyph glyph-name="mobanwendang" unicode="&#xe605;" 
d="M871 631h-114v117h-604v-779h114v-117h604q-1 25 -1 56zM191 8v701h529v-701h-529zM833 -109h-529v78h453v623h76v-701zM380 514h264v78h-264v-78zM304 125h340v39h-340v-39zM304 242h340v39h-340v-39zM304 358h340v39h-340v-39z" />
    <glyph glyph-name="shipin" unicode="&#xe652;" 
d="M730 447l-26 -15v175q0 9 -5.5 11t-18.5 2h-4h-584h-5q-8 0 -12 -0.5t-7.5 -3.5t-3.5 -9v-584q0 -5 1 -7.5t4.5 -3t6 -1t8 0t8.5 0.5h584q3 0 8.5 -0.5t8 0t5.5 1t4.5 3t1.5 7.5v172l26 -15l230 -133v267v267z" />
    <glyph glyph-name="xiala" unicode="&#xe629;" 
d="M784 504l-272 -272l-272 272q-18 18 -44.5 18t-45.5 -18.5t-19 -45t19 -45.5l317 -317q18 -18 45 -18t45 18l317 317q19 19 19 45.5t-19 45t-45.5 18.5t-44.5 -18z" />
    <glyph glyph-name="icon" unicode="&#xe62e;" 
d="M512 -208q-103 0 -197 39q-91 39 -161 109t-109 161q-40 95 -40 198t40 197q39 91 109 161.5t161 108.5q94 40 197 40t198 -40q91 -38 161 -108.5t109 -161.5q39 -94 39 -197t-39 -198q-39 -91 -109 -161t-161 -109q-95 -39 -198 -39zM512.5 775q-96.5 0 -185 -37.5
t-152.5 -101.5t-101.5 -152.5t-37.5 -185t37.5 -184.5t101.5 -152t152.5 -102t185 -38t185 38t152 102t101.5 152t38 184.5t-38 185t-101.5 152.5t-152 101.5t-185 37.5zM466 335l-15 12q35 39 64 55.5t50 16.5q11 0 17 -5t6 -14q0 -10 -23 -87q-37 -126 -37 -151
q0 -5 2.5 -8.5t5.5 -3.5q11 0 58 44l14 -14q-49 -45 -71.5 -58t-36.5 -13q-12 0 -19.5 8t-7.5 22q0 44 54 216q2 8 2 14q0 7 -6 7q-7 0 -16 -5.5t-41 -35.5zM606 569q10 0 17.5 -7t7.5 -19q0 -15 -11 -27t-24 -12q-11 0 -18 7.5t-7 19.5q0 16 10 27t25 11z" />
    <glyph glyph-name="dashboard" unicode="&#xe612;" 
d="M8 792v0v0zM226 139q0 30 -21.5 51t-51.5 21t-51 -21t-21 -51t21 -51.5t51 -21.5t51.5 21.5t21.5 51.5zM335 393q0 30 -21.5 51t-51.5 21t-51.5 -21t-21.5 -51t21.5 -51.5t51.5 -21.5t51.5 21.5t21.5 51.5zM577 120l57 217q4 15 -3.5 27.5t-22 16.5t-27.5 -3.5t-17 -22.5
l-57 -217q-34 -3 -60.5 -24.5t-35.5 -55.5q-12 -44 11 -83t66.5 -50.5t82.5 11.5t50 66q10 34 -2.5 66.5t-41.5 51.5v0zM951 139q0 30 -21 51t-51 21t-51.5 -21t-21.5 -51t21.5 -51.5t51.5 -21.5t51 21.5t21 51.5zM589 502q0 30 -21.5 51t-51.5 21t-51.5 -21t-21.5 -51
t21.5 -51.5t51.5 -21.5t51.5 21.5t21.5 51.5zM843 393q0 30 -21.5 51t-51.5 21t-51.5 -21t-21.5 -51t21.5 -51.5t51.5 -21.5t51.5 21.5t21.5 51.5zM1024 139q0 -148 -80 -274q-11 -16 -31 -16h-795q-19 0 -30 16q-80 125 -80 274q0 103 40 197t108.5 162t162.5 108.5
t197 40.5t197 -40.5t162 -108.5t108.5 -162t40.5 -197v0z" />
    <glyph glyph-name="uislide" unicode="&#xe61d;" 
d="M974.5 53q-23.5 -24 -57.5 -24h-810q-34 0 -57.5 24t-23.5 58v619q0 34 23.5 58t57.5 24h810q34 0 57.5 -24t23.5 -58v-619q0 -34 -23.5 -58zM933 730q0 7 -4.5 12t-11.5 5h-810q-7 0 -11.5 -5t-4.5 -12v-619q0 -7 4.5 -12t11.5 -5h810q7 0 11.5 5t4.5 12v619zM155 257
l163 164l81 -82l259 261l211 -212v-228h-714v97zM252.5 486q-40.5 0 -69 28.5t-28.5 69t28.5 69.5t69 29t69 -29t28.5 -69.5t-28.5 -69t-69 -28.5zM320 -79q27 0 46.5 -19.5t19.5 -47t-19.5 -47t-46.5 -19.5t-46.5 19.5t-19.5 47t19.5 47t46.5 19.5zM320 -188
q17 0 29.5 12.5t12.5 30t-12.5 29.5t-29.5 12t-29.5 -12t-12.5 -29.5t12.5 -30t29.5 -12.5zM488 -104q17 0 29.5 -12t12.5 -29.5t-12.5 -30t-29.5 -12.5t-29.5 12.5t-12.5 30t12.5 29.5t29.5 12zM656 -104q17 0 29.5 -12t12.5 -29.5t-12.5 -30t-29.5 -12.5t-29.5 12.5
t-12.5 30t12.5 29.5t29.5 12z" />
    <glyph glyph-name="dengluzhanghao" unicode="&#xe64b;" 
d="M781 107q-2 0 -4 1q-19 4 -28.5 6.5t-26.5 7.5t-25.5 8.5t-22 8.5t-19.5 10.5t-14.5 12.5t-10.5 15t-3.5 17t1.5 20.5t9 24.5q39 76 54 143.5t7.5 115t-30.5 81.5t-58 50.5t-78 16.5t-78.5 -17t-58.5 -52t-30 -82.5t8 -114t54 -141.5q9 -18 10.5 -33.5t-2 -26.5t-16 -21
t-23 -16t-32.5 -13t-35 -10.5t-40 -10.5q-4 -1 -6 -1q-19 -5 -33 -12t-23.5 -13.5t-16 -19t-10 -21t-5 -26.5t-1.5 -29.5v-34.5v-20h676v20v34.5t-1.5 29.5t-5 26.5t-10 21t-16 19t-23.5 13.5t-33 12z" />
    <glyph glyph-name="fanhui" unicode="&#xe62f;" 
d="M738 642l-75 75l-350 -350v0l-74 -74v-1v0l75 -75v0l345 -345l74 74l-345 346z" />
    <glyph glyph-name="yonghu" unicode="&#xe613;" 
d="M948 -152q0 -16 -11.5 -27.5t-28 -11.5t-28 11.5t-11.5 27.5v4v4q-18 130 -118 215.5t-235 86.5h-1.5h-2.5h-2.5h-1.5q-134 -1 -233 -84.5t-119 -211.5q1 -5 1 -10v-4q0 -16 -11.5 -28t-28 -12t-28 12t-11.5 28l-1 1v0v1v2q0 4 1 9q16 119 89.5 210.5t183.5 133.5
q-64 41 -102 110t-38 149q0 128 87.5 217.5t213.5 89.5t213.5 -89.5t87.5 -217.5q0 -80 -38 -149t-102 -110q109 -42 182.5 -132.5t89.5 -207.5q3 -7 3 -13v-4zM743 464q0 96 -67.5 164t-163.5 68t-164 -68t-68 -164t68 -163.5t164 -67.5t163.5 67.5t67.5 163.5z" />
    <glyph glyph-name="shangchuan" unicode="&#xe691;" 
d="M923 128l-33 -183h-756l-33 183h-84v-292h991v292h-85zM125 330h249v-107h282v107h246l-386 412zM373 42h283v38h-283v-38zM373 114h283v73h-283v-73z" />
    <glyph glyph-name="weiyuyue" unicode="&#xe6a3;" 
d="M339 119l129 61l343 334l-30 30l-339 -332l-19 21l338 330l-31 32l-349 -349zM838 547q-29 0 -50 21t-21 50.5t21 50t50 20.5t50 -20.5t21 -50t-21 -50.5t-50 -21zM838 671q-22 0 -37.5 -15.5t-15.5 -37t15.5 -37t37.5 -15.5t37.5 15.5t15.5 37t-15.5 37t-37.5 15.5z
M873 483q47 -89 47 -189q0 -110 -54.5 -204t-148.5 -148.5t-204.5 -54.5t-204.5 54.5t-148.5 148.5t-54.5 204.5t54.5 204.5t148.5 148.5t205 54.5q98 0 186 -45l26 27q-100 55 -212 55q-91 0 -173 -35.5t-141.5 -95t-95 -141.5t-35.5 -172.5t35.5 -173t95 -142t141.5 -94.5
t172.5 -35t172.5 35t141.5 94.5t95 142t35.5 172.5q0 115 -57 216l-10.5 -10.5z" />
    <glyph glyph-name="dongtaiyemianxiaotubiao03" unicode="&#xe661;" 
d="M512 812l-399 -238l402 -240l398 238zM75 27l400 -239v480l-400 239v-480zM549 265v-477l400 239v477z" />
    <glyph glyph-name="qq" unicode="&#xe630;" 
d="M512 812q-104 0 -199 -40.5t-163.5 -109t-109 -163.5t-40.5 -199t40.5 -199t109 -163.5t163.5 -109t199 -40.5t199 40.5t163.5 109t109 163.5t40.5 199t-40.5 199t-109 163.5t-163.5 109t-199 40.5zM794 140q-10 -8 -25.5 0.5t-32.5 31.5q-14 -38 -36 -71q51 -18 51 -47
q0 -25 -39 -43t-94 -18q-66 0 -106 24q-39 -24 -106 -24q-55 0 -93.5 18t-38.5 43q0 29 50 47q-21 32 -36 71q-16 -23 -31.5 -31.5t-25.5 -0.5q-14 13 -9.5 52.5t24.5 81.5q9 20 20 35q3 124 74.5 211t171.5 87v0q101 0 172.5 -87t74.5 -211q10 -15 19 -35
q20 -42 24.5 -81.5t-8.5 -52.5z" />
    <glyph glyph-name="guanzhu" unicode="&#xe66c;" 
d="M513 496q20 0 40 -5l-7 45q-17 3 -33 3q-99 0 -168.5 -69.5t-69.5 -168t69.5 -168.5t168 -70t168 70t69.5 168q0 17 -2 34l-45 7q4 -20 4 -41q0 -81 -57 -138t-137.5 -57t-137.5 57t-57 138t57 138t138 57zM628 453l-109 -109h-6q-18 0 -31 -12.5t-13 -30.5q0 -3 1 -6v0
v-1q2 -14 12 -24t24 -12h1v0h6q18 0 30.5 12.5t12.5 30.5v6l109 109l127 -19l153 153l-160 23l-33 -33l119 -16l-92 -85l-116 13l-17 119l86 81l20 -112l34 34l-24 159l-153 -152zM892 388q10 -43 10 -87q0 -106 -52 -195.5t-142 -141.5t-195.5 -52t-195 52t-141.5 141.5
t-52 195.5t52 195.5t141.5 141.5t195.5 52q44 0 86 -10l36 36q-60 17 -122 17q-118 0 -217.5 -57.5t-157.5 -157.5t-58 -217t58 -217t157.5 -157.5t217 -57.5t217 57.5t157.5 157.5t58 217q0 62 -17 122z" />
    <glyph glyph-name="kefu" unicode="&#xe68f;" 
d="M509 633q-104 0 -178 -72t-74 -174.5t74 -175t178.5 -72.5t178.5 72.5t74 175t-74 174.5t-179 72v0zM218 291v229q-5 0 -10 -1q40 86 121 138.5t180 52.5t180.5 -52.5t120.5 -138.5q-4 1 -9 1v-229q48 0 82 33.5t34 81.5q0 31 -16 57.5t-43 41.5q-38 107 -133.5 175
t-215 68t-215 -68t-133.5 -175q-27 -15 -43.5 -41.5t-16.5 -57.5q0 -48 34.5 -81.5t82.5 -33.5v0zM761 161q-106 -97 -252 -97q-145 0 -251 96q-92 -46 -144 -125t-52 -183h897q0 104 -52.5 183.5t-145.5 125.5v0zM761 161z" />
    <glyph glyph-name="xiugai" unicode="&#xe699;" 
d="M846 423l-361 -361v0l-83 83l361 361l83 -83v0zM869 446l55 55q9 10 9 23t-9 23l-38 37q-9 10 -22.5 10t-22.5 -10l-55 -55l83 -83v0zM381 120l-21 -99l101 20l-80 79v0v0zM704 492v0l-192 224h-352q-26 0 -45 -19t-19 -45v-736q0 -26 18.5 -45t45.5 -19h480
q26 0 45 18.5t19 45.5v320l243 243q18 18 18.5 45t-18.5 45l-38 38q-19 19 -45 19t-45 -19l-115 -115v0v0zM672 204v-288q0 -13 -9.5 -22.5t-22.5 -9.5h-480q-13 0 -22.5 9.5t-9.5 22.5v736q0 13 9.5 22.5t22.5 9.5h320v-160q0 -27 18.5 -45.5t45.5 -18.5h128l-320 -320
l-32 -160l160 32l192 192v0v0zM512 668v-144q0 -13 9.5 -22.5t22.5 -9.5h118l-150 176v0z" />
    <glyph glyph-name="fanhuidingbu1" unicode="&#xe638;" 
d="M734 366q1 72 -21 137.5t-51 106t-66.5 75t-55 45.5t-30.5 18v0v0v0v0q-13 -7 -30.5 -18t-55 -45.5t-66.5 -75t-51 -106t-21 -137.5q-91 -58 -82 -164q5 -58 49.5 -100t73.5 -39q23 2 23 27l11 44q2 -3 5.5 -7.5t12.5 -17t16.5 -22t15.5 -17t13 -7.5q14 1 86 0v0v0v0v0
q72 1 86 0q7 0 22.5 18t28 35.5l12.5 17.5l11 -44q0 -1 -0.5 -2.5t-0.5 -6t1.5 -8t7.5 -6.5t15 -4q29 -3 73.5 39t49.5 100q9 106 -82 164zM510 370q-5 0 -11.5 0.5t-21 6t-26 14.5t-22 28.5t-12.5 45.5q1 24 10.5 43t21.5 28.5t27 15.5t22 7t12 2q5 -1 12 -2t22 -7
t27 -15.5t21.5 -28.5t10.5 -43q-2 -26 -12.5 -45.5t-22 -28.5t-26 -14.5t-21 -6t-11.5 -0.5zM463 -75q0 -8 -5.5 -13.5t-13.5 -5.5v0q-8 0 -13.5 5.5t-5.5 13.5v94q0 8 5.5 13.5t13.5 5.5v0q8 0 13.5 -5.5t5.5 -13.5v-94zM533 -125q0 -8 -5.5 -14t-13.5 -6v0q-8 0 -14 6
t-6 14v139q0 8 6 13.5t14 5.5v0q8 0 13.5 -5.5t5.5 -13.5v-139zM597 -53q0 -7 -5.5 -13t-13.5 -6v0q-8 0 -13.5 6t-5.5 13v67q0 8 5.5 13.5t13.5 5.5v0q8 0 13.5 -5.5t5.5 -13.5v-67z" />
    <glyph glyph-name="guanbi" unicode="&#xe6be;" 
d="M1024 781l-31 31l-481 -481l-481 481l-31 -31l481 -481l-481 -481l31 -31l481 481l481 -481l31 31l-481 481z" />
    <glyph glyph-name="anli" unicode="&#xe614;" 
d="M967 -160l-103 -24q-40 -10 -49.5 -4.5t-19.5 44.5l-10 39l214 51l7 -26q1 -6 4 -15q10 -37 4.5 -46t-47.5 -19zM649 398q-10 38 -4 47t46 19l103 24q40 10 49 6t16 -32l126 -464l-214 -51zM503 -191h-64q-44 0 -57.5 8.5t-13.5 46.5v803h206v-803q0 -39 -11 -47t-60 -8z
M368 736q0 38 13.5 46.5t57.5 8.5h64q45 0 58 -8.5t13 -46.5v-42h-206v42zM226 -191h-162q-41 0 -49 7.5t-8 47.5v46h276v-46q0 -40 -7.5 -47.5t-49.5 -7.5zM7 -15h276v-48h-276v48zM7 408h276v-396h-276v396zM7 532q0 39 8 46.5t49 7.5h162q42 0 49.5 -7.5t7.5 -46.5v-69
h-276v69z" />
    <glyph glyph-name="shanchu" unicode="&#xe624;" 
d="M483 495q0 14 9 23t23 9v0q13 0 22.5 -9t9.5 -23v-485q0 -13 -9.5 -22.5t-22.5 -9.5v0q-14 0 -23 9.5t-9 22.5v485zM332 495q0 14 9.5 23t22.5 9v0q13 0 22.5 -9t9.5 -23v-485q0 -13 -9.5 -22.5t-22.5 -9.5v0q-13 0 -22.5 9.5t-9.5 22.5v485zM633 495q0 14 9.5 23t22.5 9
v0q14 0 23 -9t9 -23v-485q0 -13 -9 -22.5t-23 -9.5v0q-13 0 -22.5 9.5t-9.5 22.5v485zM899 653h-126h-46v40q0 23 -18.5 39.5t-45.5 16.5h-296q-27 0 -45.5 -16.5t-18.5 -39.5v-40h-46h-132q-13 0 -22.5 -9.5t-9.5 -23t9.5 -22.5t22.5 -9h68v-675q0 -26 18.5 -44.5
t45.5 -18.5h516q26 0 45 18.5t19 44.5v675h62q13 0 22.5 9t9.5 22.5t-9.5 23t-22.5 9.5zM367 685h296v-32h-296v32zM739 -85q-414 -1 -449 -1q-16 0 -24 9t-9 18v9v608q0 10 3 17t7.5 9.5t9.5 4t8 0.5h3h79h296h72h4.5t9 -1.5t11.5 -4.5t9 -9.5t4 -15.5v-306.5v-304.5
q0 -14 -8.5 -22t-16.5 -9z" />
    <glyph glyph-name="sheweitoutu" unicode="&#xe62a;" 
d="M64 610l131 132l134 -132l-133 -130zM228 33l372 372l76 -76l-373 -372l59 -64l586 587l-198 198l-579 -579zM129 56l42 43l57 -66l75 -76l59 -64l-34 -35z" />
    <glyph glyph-name="fenggeertong" unicode="&#xe680;" 
d="M512 812q96 0 177 -47t128 -128t47 -176.5t-47 -177t-128 -128.5t-177 -47t-177 47t-128 128.5t-47 177t47 176.5t128 128t177 47v0v0zM328 544q-2 51 -17 52q-12 0 -46 -49q-47 -64 -67 -73q-4 -87 37 -163t115 -121t162 -45q130 0 222.5 92.5t92.5 222.5q0 39 -18.5 70
t-49 38t-70.5 -29q-13 -12 -25.5 -20t-24.5 -11.5t-20.5 2.5t-10.5 23q-3 22 -6.5 32.5t-10 13t-17 -7t-26.5 -32.5q-24 -33 -39 -44t-21.5 -3.5t-10 23t-6 32.5t-6.5 28t-15 7t-30 -29q-16 -20 -30.5 -33t-28.5 -19.5t-22.5 4.5t-10.5 39v0zM694 320q-20 -57 -69.5 -93.5
t-112.5 -36.5t-112.5 36.5t-69.5 93.5h11q26 -35 73 -56.5t98 -21.5q52 0 100 21.5t74 56.5h8v0zM373 407q0 10 7 17.5t17.5 7.5t18 -7.5t7.5 -17.5h-50zM318 -102q0 -85 -72 -105l-2 1q47 29 49 104v90l-1 13l1 1q2 0 31 -7q-1 -1 -1 -3q-2 -3 -5 -4v-90zM383 -162
q0 -11 14 -15q3 -1 5 -1h15q26 0 34 43q2 1 4 -1q-6 -26 1 -37q1 -2 2 -2q10 -21 -26 -24h-40q-31 1 -33 23v159l-2 26h2q15 -2 31 -9v-2q-1 -2 -4 -4l-3 -2v-154zM625 -207v23h-49q-2 -1 -16 -1l-4 7q3 -1 7 -1h62v24h-36v-3q-1 -5 -12.5 -7t-11.5 4v4q1 16 1 31q0 16 1 24
v14q12 -3 22 -9h92q1 2 4 6q3 2 5 5q1 1 4 1q9 -5 22 -14q1 -1 0 -3q-2 -4 -6 -7l3 -49q-3 -4 -18 -7q-10 -2 -10 4v6h-36v-24h44q9 11 14 16q-1 0 3 0q13 -9 20 -17q2 -4 -1 -4h-80v-23h59q2 3 7 10q6 7 8 9q2 1 4 0q19 -11 26 -19q0 -3 -2 -5h-197h-16l-4 6q3 0 7 -1h84z
M673 -37q8 -2 19 -6v-3q-2 -1 -3 -1q-5 -2 -6 -3l-23 -25h47q1 1 7 8t8 8q-1 0 2 0q16 -9 24 -17q2 -4 -2 -4h-190h-15l-5 6q3 -1 8 -1h103q5 14 11 38h-92h-16l-4 7q6 -1 8 -1h135q1 1 4 5q8 10 11 13q1 1 3 0q19 -11 26 -19q1 -4 -1 -5h-59v0zM586 -39q28 -2 31 -20
q-6 -22 -22 -9q-1 2 -1 8q1 12 -9 20q-1 0 1 1zM625 -124v22h-36v-22h36zM625 -150v21h-36v-21h36zM614 8q33 -2 38 -20q2 -11 -9 -17q-12 -4 -18 5q-1 3 -1 9q2 11 -10 21q-1 0 0 2zM654 -102q-1 -1 -2 -3q-3 -3 -3 -5v-14h36v22h-31zM649 -129v-21h36v21h-36z" />
    <glyph glyph-name="liebiao" unicode="&#xe615;" 
d="M63 749v-898h898v898h-898zM896 -84h-768v768h768v-768zM195 541h444v-65h-444v65zM768 541h65v-65h-65v65zM196 332h444v-64h-444v64zM768 332h65v-64h-65v64zM195 124h444v-65h-444v65zM768 124h65v-65h-65v65z" />
    <glyph glyph-name="shoujiduanxin" unicode="&#xe66a;" 
d="M339 77h339v506h-339v-506zM593.5 345q9.5 0 16 -6.5t6.5 -16t-6.5 -16.5t-16 -7t-16.5 7t-7 16.5t7 16t16.5 6.5zM511.5 345q9.5 0 16 -6.5t6.5 -16t-6.5 -16.5t-16 -7t-16.5 7t-7 16.5t7 16t16.5 6.5zM424.5 345q9.5 0 16 -6.5t6.5 -16t-6.5 -16.5t-16 -7t-16.5 7
t-7 16.5t7 16t16.5 6.5zM509 770q-98 0 -187.5 -38t-154 -102.5t-102.5 -154t-38 -187.5t38 -187.5t102.5 -154t154 -102.5t187.5 -38t187 38t154 102.5t103 154t38 187.5t-38 187.5t-103 154t-154 102.5t-187 38zM720 -10q0 -17 -11.5 -29t-28.5 -12h-342q-17 0 -29 12
t-12 29v596q0 17 12 29t29 12h342q17 0 28.5 -12t11.5 -29v-596zM489 13q0 -8 5.5 -14t14 -6t14.5 6t6 14v0q0 8 -6 14t-14.5 6t-14 -6t-5.5 -14v0z" />
    <glyph glyph-name="qinzi" unicode="&#xe63d;" horiz-adv-x="1025" 
d="M398 456q-19 18 -47 23t-46 1l-18 -4q-19 -3 -36 -11.5t-25 -15.5l-8 -8q-12 -12 -20.5 -29.5t-12.5 -31.5t-6 -36t-2.5 -32.5t0 -32t0.5 -23.5q0 -18 8.5 -63.5t17 -83.5t8.5 -37q14 -40 29 -72.5t25.5 -49.5t21 -30t13.5 -16t5 -4v0q-1 71 6 137q4 42 23.5 94.5
t28.5 69.5q1 1 14.5 20t29 44t24.5 47q14 39 4.5 78.5t-37.5 65.5zM406 323q-15 -36 -57 -94q-8 -11 -10 -15q-4 -8 -14.5 -32t-24 -67t-17.5 -75q-2 -27 -4 -58q-22 41 -41 98q-34 139 -34 176v17q0 30 0.5 50t8.5 51t25 48q22 22 53 27q18 5 35 5q34 0 53 -18
q21 -19 29.5 -49.5t-2.5 -63.5zM655 369l-3 3q-2 0 -6 -8l-9 -22.5t-18 -36t-19 -14.5q-14 -3 -25.5 -1.5t-32.5 12.5l-16 10t-11.5 8t-7 5t-5 1.5t-3.5 -3.5q8 -17 18.5 -44t28 -94.5t15.5 -115.5v-79q6 6 14.5 18t26.5 49t24 76q35 202 29 236zM599 138q-4 -22 -11 -44
q-4 74 -38 174q15 -6 29 -6q6 0 16 1q5 1 8 1q9 1 17 5q-9 -64 -21 -131zM875 195q-2 20 -15 70t-28 86q-36 71 -51 78v-36t-6 -72.5t-19 -80.5q-23 -64 -59 -111q-18 -23 -23.5 -46.5t-2.5 -42t13 -41.5q12 -27 49 -39t58 -5q3 1 16 4.5t18.5 6.5t17 13.5t22.5 27.5
q8 12 12.5 30.5t5.5 36t0.5 39t-2.5 35.5t-4 30t-2 17zM845 20q-10 -14 -18.5 -22.5t-14 -10.5t-15.5 -5q-9 -2 -14 -4q-3 -1 -9 -1v0q-21 0 -41 9q-21 9 -27 23q-13 30 -12 51q1 27 22 54q38 49 63 117q18 45 24 124q4 -7 7 -14q15 -35 27 -83t14 -65q0 -3 1 -12
q7 -50 8 -82q0 -56 -15 -79zM347 665q-31 0 -53.5 -22t-22.5 -53.5t22.5 -53.5t53.5 -22t53 22t22 53.5t-22 53.5t-53 22zM347 541q-20 0 -34.5 14t-14.5 34.5t14.5 34.5t34.5 14t34.5 -14t14.5 -34.5t-14.5 -34.5t-34.5 -14zM757.5 595q-26.5 0 -45.5 -19t-19 -45.5
t19 -45.5t45.5 -19t45.5 19t19 45.5t-19 45.5t-45.5 19zM757.5 489q-17.5 0 -29.5 12t-12 29.5t12 29.5t29.5 12t29.5 -12t12 -29.5t-12 -29.5t-29.5 -12zM571.5 442q-20.5 0 -35.5 -14.5t-15 -35.5t15 -36t35.5 -15t35.5 15t15 36t-15 35.5t-35.5 14.5zM571.5 359
q-13.5 0 -23 9.5t-9.5 23t9.5 23t23 9.5t23 -9.5t9.5 -23t-9.5 -23t-23 -9.5zM513 812q-104 0 -199 -40.5t-163.5 -109t-109 -163.5t-40.5 -199t40.5 -199t109 -163.5t163.5 -109t199 -40.5t198.5 40.5t163 109t109 163.5t40.5 199t-40.5 199t-109 163.5t-163 109
t-198.5 40.5zM513 -173q-96 0 -184 37.5t-151 101t-100.5 151t-37.5 183.5t37.5 183.5t100.5 151t151 101t184 37.5t183.5 -37.5t151 -101t101 -151t37.5 -183.5t-37.5 -183.5t-101 -151t-151 -101t-183.5 -37.5z" />
    <glyph glyph-name="shangjiahuanjing" unicode="&#xe631;" 
d="M915 256v-388q0 -17 -12 -29t-29 -12h-733q-17 0 -29 12t-12 29v388q-61 50 -61 129v248q0 17 12 29t29 12h855q17 0 29 -12t12 -29v-248q0 -79 -61 -129v0zM508 220q-52 0 -94 30t-59 79q-18 -49 -59.5 -79t-93.5 -30q-9 0 -20 1v-250q0 -17 12 -29t29 -12h570
q17 0 28.5 12t11.5 29v250q-11 -1 -20 -1q-52 0 -94 30t-59 79q-17 -49 -58.5 -79t-93.5 -30v0v0z" />
    <glyph glyph-name="shangpin" unicode="&#xe665;" 
d="M509.5 304q-63.5 0 -112 40.5t-59.5 102.5q16 11 16 31q0 16 -11 27.5t-27 11.5t-27.5 -11.5t-11.5 -27.5q0 -24 22 -35q13 -76 72.5 -127t138 -51t138 51t72.5 127q22 11 22 35q0 16 -11.5 27.5t-27.5 11.5t-27.5 -11.5t-11.5 -27.5q0 -20 17 -31q-12 -62 -60 -102.5
t-111.5 -40.5zM781 653h-20v0h-135v0h-3v-1q-7 0 -12 -5.5t-5 -13t5 -13t12 -6.5v0h158q16 0 27 -11.5t11 -27.5v-542q0 -16 -11 -27.5t-27 -11.5h-543q-16 0 -27.5 11.5t-11.5 27.5v542q0 16 11.5 27.5t27.5 11.5h138v0q7 1 12 6.5t5 13t-5 13t-12 5.5v1h-2v0h-136v0
q-32 0 -54.5 -23t-22.5 -55v-542q0 -32 22.5 -55t54.5 -23h543q32 0 54.5 23t22.5 55v542q0 32 -22.5 55t-54.5 23z" />
    <glyph glyph-name="paomadeng" unicode="&#xe627;" 
d="M914 775h-804q-46 0 -78 -32t-32 -77v-732q0 -45 32 -77t78 -32h804q46 0 78 32t32 77v732q0 45 -32 77t-78 32zM951 593v-74h-878v74h878zM914 -102h-804q-15 0 -26 10.5t-11 25.5v439h878v-439q0 -15 -11 -25.5t-26 -10.5zM146 227v-37h-36v73h109v-36h-73v0zM256 81
v-37h-37v110h-36v-147h-37v37h-36v73h36v73h73v37h37v-37h73v37h-73v73h37v-37h73v-182h-37v36h-36v37h-37v-37h37v-36h-37v0zM366 81h36v-37h-36v37zM256 44h110v-37h-110v37zM622 154h36v-147h-73v37h37v73h-183v73h36v-36h110v73h-110v36h147v-109v0zM585 81v-37h-146v37
h146zM768 190h37v-36h-37v-73h-37v73h-36v73h36v36h37v-73zM695 81h36v-74h-36v74zM768 44v37h37v-37h-37zM805 227h36v-37h-36v37zM951 263v-36h-37v-220h-73v37h37v183h-37v36h110v0z" />
    <glyph glyph-name="email" unicode="&#xe632;" 
d="M511 812q-104 0 -198.5 -40.5t-163 -109t-109 -163t-40.5 -198.5q0 -105 40.5 -200t109 -163.5t163 -109t198.5 -40.5t199 40.5t163.5 109t109.5 164t41 199.5t-40.5 198.5t-109 163t-163.5 109t-200 40.5zM805 109h-586v345l292 -216l293 216v-345h1zM511 272l-292 217
h585z" />
    <glyph glyph-name="tupian" unicode="&#xe653;" 
d="M736 522h9t22 -5t27.5 -13t21.5 -26.5t10 -43.5q-1 -1 0.5 -9.5t-3.5 -21.5t-12.5 -25.5t-27.5 -22t-47 -10.5q-4 0 -10 0.5t-21 5t-27 13t-21 26.5t-9 44q0 3 0.5 8.5t5 20t12.5 25.5t26.5 21.5t43.5 12.5v0zM914 659q2 0 5 -0.5t11.5 -3.5t14.5 -7.5t11 -13.5t5 -21
v-626q0 -2 -0.5 -5t-3 -10.5t-7.5 -13.5t-14.5 -11t-21.5 -6v718v0zM65 -13q0 -2 0.5 -5t3 -11t7 -14t13.5 -11t22 -5h803v133h-88l-178 181l-134 -135l-183 225l-180 -269l-40 -1l-1 538h-45v-626v0zM914 659h-803q-2 0 -5 -0.5t-11 -2.5t-14 -6.5t-11 -14t-5 -22.5h849v46
v0zM914 659z" />
    <glyph glyph-name="tuwen" unicode="&#xe655;" 
d="M233 469h299v-212h-299v212v0zM662 469h128v-82h-128v82v0zM662 341h125v-84h-125v84v0zM233 170h557v-41h-557v41v0zM876 556v-513h-727v-84h727q3 -1 9 -1.5t21 2t26 10t20 27t9 48.5v511q0 4 0.5 9.5t-2.5 20t-10.5 26t-26.5 21t-47 9.5h-726q-3 0 -9 -0.5t-21 -5.5
t-26.5 -13t-21 -25.5t-9.5 -41.5h814v0zM149 556v-597q-3 -1 -9 -1.5t-21 2.5t-26.5 10.5t-21 26t-9.5 46.5v513h87v0zM149 556z" />
    <glyph glyph-name="page" unicode="&#xe616;" 
d="M0 812v-1024h1024v1024h-1024zM128 684h768v-512l-256 -256h-512v768zM195 556h578v-67h-578v67zM195 361h578v-66h-578v66zM195 172h384v-67h-384v67z" />
    <glyph glyph-name="beiguanzhu" unicode="&#xe66d;" 
d="M944 420l-287 42q-1 0 -1 1l-128 259q0 1 -1 0l-128 -259q0 -1 -1 -1l-287 -42q-1 0 0 0l207 -202q1 -1 1 -2l-49 -285v-1h1l256 135h1q0 31 14 52t33 21h66v67q0 19 22.5 33t53.5 14q25 0 45 -9l182 177q1 0 0 0zM831 100h-76v76q0 16 -11 27t-27 11t-27 -11t-11 -27
v-76h-76q-15 0 -26.5 -11t-11.5 -26.5t11.5 -27t26.5 -11.5h76v-75q0 -16 11 -27t27 -11t27 11t11 27v75h76q16 0 27 11.5t11 27t-11 26.5t-27 11z" />
    <glyph glyph-name="fensi" unicode="&#xe606;" 
d="M488.5 -49q-107.5 0 -199 53.5t-145 145t-53.5 199t53.5 199t145 145t199 53.5t199.5 -53.5t145 -145t53 -199t-53 -199t-145 -145t-199.5 -53.5zM830 454l13 3q-10 33 -27 66l-11 -7q-12 -7 -18.5 4.5t5.5 18.5l11 7q-18 29 -42 56l-10 -10q-10 -9 -19 0t0 19l10 10
q-25 23 -56 42l-7 -11q-7 -12 -18.5 -5.5t-4.5 18.5l7 12q-31 16 -66 26l-3 -13q-4 -12 -16.5 -8.5t-9.5 15.5l4 13q-35 8 -70 9v-13q0 -5 -4 -9t-9.5 -4t-9.5 4t-4 9v13q-34 -1 -70 -9l4 -13q3 -12 -9.5 -15.5t-16.5 8.5l-3 13q-33 -10 -65 -27l6 -11q7 -12 -4.5 -18.5
t-18.5 5.5l-7 11q-29 -18 -56 -42l10 -10q9 -10 0 -19t-19 0l-10 10q-23 -25 -42 -56l12 -7q11 -7 4.5 -18.5t-18.5 -4.5l-12 7q-16 -31 -26 -66l13 -3q12 -4 9 -16.5t-16 -9.5l-13 4q-7 -35 -9 -70h13q5 0 9 -4t4 -9.5t-4 -9.5t-9 -4h-13q2 -35 9 -70l13 4q13 3 16 -9.5
t-9 -16.5l-13 -3q10 -33 27 -66l11 7q12 7 18.5 -4.5t-4.5 -18.5l-12 -7q18 -29 42 -56l10 10q10 9 19 0t0 -19l-10 -10q25 -23 56 -42l7 12q7 11 18.5 4.5t4.5 -18.5l-7 -12q31 -16 66 -26l3 13q4 12 16.5 9t9.5 -16l-4 -13q35 -7 70 -9v13q0 5 4 9t9.5 4t9.5 -4t4 -9v-13
q35 2 70 9l-4 13q-3 13 9.5 16t16.5 -9l3 -13q34 10 66 27l-7 11q-7 12 4.5 18.5t18.5 -4.5l7 -12q29 18 56 42l-10 10q-9 10 0 19t19 0l10 -10q23 25 42 56l-11 7q-12 7 -5.5 18.5t18.5 4.5l12 -7q16 31 26 66l-13 3q-12 4 -8.5 16.5t15.5 9.5l13 -4q8 35 9 70h-13
q-5 0 -9 4t-4 9.5t4 9.5t9 4h13q-1 35 -9 70l-13 -4q-12 -3 -15.5 9.5t8.5 16.5zM628 150l-139 64l-140 -64l20 151l-106 111l151 28l75 134l74 -134l151 -28l-105 -111zM674 402l-124 24l-61 108l-62 -108l-124 -24l87 -90l-16 -122l115 52l114 -52l-16 122z" />
    <glyph glyph-name="hufu" unicode="&#xe6a4;" 
d="M291 -57h-203q-11 0 -18.5 7.5t-7.5 18.5v463q0 10 7.5 17.5t18.5 7.5h22v36q0 10 7.5 17.5t18.5 7.5h107q10 0 17.5 -7.5t7.5 -17.5v-36h23q10 0 17.5 -7.5t7.5 -17.5v-463q0 -11 -7.5 -18.5t-17.5 -7.5zM113 -6h152v412h-22q-11 0 -18 7.5t-7 18.5v35h-57v-35
q0 -11 -7.5 -18.5t-17.5 -7.5h-23v-412zM506 -62h-59q-27 0 -57.5 30t-30.5 73v165q0 40 39 80l10 10l-1 87q0 10 7 17.5t18 7.5h89q10 0 17.5 -7.5t7.5 -17.5v-92q0 2 2.5 0t6.5 -5q39 -40 39 -80v-165q0 -43 -30.5 -73t-57.5 -30zM457 357v-66q0 -18 -23 -41
q-24 -25 -24 -44v-165q0 -21 14.5 -35.5t23.5 -16.5h57q10 2 24 16.5t14 35.5v165q0 19 -25 44q-23 23 -23 41v66h-38zM835 93h-158q-9 0 -16.5 5.5t-8.5 14.5q-88 472 -95 496q-7 26 6 42q12 16 36 16h313q25 0 36 -16q13 -16 6 -42q-6 -23 -94 -496q-2 -9 -9 -14.5
t-16 -5.5zM698 143h115q78 416 90 473h-295q16 -78 90 -473zM835 -64h-158q-11 0 -18.5 7t-7.5 18v157q0 10 7.5 17.5t18.5 7.5h158q10 0 17.5 -7.5t7.5 -17.5v-157q0 -11 -7.5 -18t-17.5 -7zM702 -14h107v107h-107v-107z" />
    <glyph glyph-name="tianjia" unicode="&#xe65a;" 
d="M1024 332h-480v480h-64v-480h-480v-64h480v-480h64v480h480v64z" />
    <glyph glyph-name="icon13" unicode="&#xe643;" 
d="M240 746h44q3 -4 13 -14.5t14.5 -19t3.5 -18.5q6 -126 -2 -198q-7 -26 -33.5 -33.5t-49.5 7t-21 42.5q2 23 -3 76.5t1 92t33 65.5zM740 746h43q3 -4 13.5 -14t15 -18.5t3.5 -19.5q6 -127 -2 -197q-5 -20 -22.5 -29.5t-36 -6.5t-33 17t-12.5 35q2 22 -3 75.5t1 92t33 65.5
zM66 605q10 40 45 57t80 16q1 -22 -0.5 -66.5t0 -79t7.5 -65.5q10 -26 37 -36t53.5 -0.5t37.5 35.5q7 30 8 65t0 78t-1 66h358q0 -22 -1 -66t0 -78t8 -65q10 -25 37 -35t54 0t37 36q7 31 8 66t-0.5 78t-0.5 67q45 1 79.5 -16t45.5 -56v-218h-892v217zM66 354q42 0 56 -1
q0 -10 -1.5 -178t1.5 -178q0 -42 38.5 -67t81.5 -22q270 -1 539 0q44 -3 82 21.5t39 66.5q3 9 1.5 178.5t-1.5 178.5q7 0 28 0.5t28 0.5v-430q-18 -52 -70 -70h-760q-23 28 -62 68v432v0zM260 212q4 38 34.5 62.5t67.5 29t73.5 -10.5t51.5 -48q6 -13 4 -28t-4.5 -25.5
t-11.5 -23t-17 -21t-21 -18.5t-22.5 -17t-22 -16.5t-20.5 -15.5q40 -1 121 -1v-66q-199 0 -239 1q5 32 25 60.5t42.5 46.5t50 43t42.5 47q-3 24 -19 31t-33.5 -3t-25.5 -28q-38 0 -76 1zM533 228q13 39 50 58.5t79 15.5t72 -28q22 -25 16 -54t-31 -50q29 -10 40.5 -38
t2.5 -57.5t-33 -45.5q-34 -20 -75.5 -21.5t-76.5 20t-47 61.5q4 0 33 4t44 6q9 -27 32.5 -37.5t42.5 14.5q14 30 -6.5 50t-52.5 17q1 9 4 42q2 1 9 4t9.5 4.5t8.5 4.5t8.5 5t6 6t4.5 7.5t1.5 8t-1 9.5t-4.5 11q-35 22 -62 -31q-10 2 -37.5 7t-36.5 7z" />
    <glyph glyph-name="guanliyuan" unicode="&#xe617;" 
d="M759 187q18 0 31 12.5t13 31.5q0 21 -17 34v0q-51 40 -111 63q40 33 62 80.5t22 101.5q0 99 -70 169t-169.5 70t-169.5 -70t-70 -169q0 -54 22 -101.5t62 -80.5q-125 -48 -202.5 -159t-77.5 -248v0q0 -18 12.5 -31t30.5 -13t31 13t13 31q0 95 46.5 175t127 127t175.5 47
q116 0 209 -71q13 -12 30 -12zM519.5 357q-63.5 0 -108 45t-44.5 108t44.5 107.5t108 44.5t108 -44.5t44.5 -107.5t-44.5 -108t-108 -45zM918 24h-21v62q0 28 -25 48t-61 20t-61.5 -20t-25.5 -48v-62h-22q-8 0 -14.5 -6t-6.5 -13v-135q0 -8 6.5 -13.5t15.5 -5.5h216
q9 0 15 5.5t6 13.5v135q0 7 -6.5 13t-15.5 6zM854 24h-87v65q0 13 13 22t31 9t30.5 -9t12.5 -22v-65z" />
    <glyph glyph-name="youhuiquan" unicode="&#xe607;" 
d="M957 178zM957.5 375q-6.5 0 -11 4.5t-4.5 10.5v61q0 7 4.5 11.5t11 4.5t11 -4.5t4.5 -11.5v-61q0 -6 -4.5 -10.5t-11 -4.5zM957 464zM957 464zM65.5 589q-6.5 0 -11 4.5t-4.5 10.5v47q0 7 4.5 11.5t10.5 4.5h892q7 0 11.5 -4.5t4.5 -11.5v-45q0 -6 -4.5 -10.5t-11 -4.5
t-11 4.5t-4.5 10.5v30h-861v-32q0 -6 -4.5 -10.5t-11 -4.5zM957 -44h-892q-6 0 -10.5 4.5t-4.5 11t4.5 11t10.5 4.5h877v32q0 7 4.5 11.5t11 4.5t11 -4.5t4.5 -11.5v-47q0 -7 -4.5 -11.5t-11.5 -4.5zM957 441h-3q-31 7 -51 31q-20 25 -20 57.5t20 57.5t51 31q6 1 11.5 -2
t7 -9.5t-2 -12t-9.5 -6.5q-21 -4 -34.5 -20.5t-13.5 -37.5t13.5 -37.5t34.5 -21.5q6 -1 9.5 -6.5t1.5 -11.5q-2 -12 -15 -12zM957 222q-1 0 -3 1q-31 6 -51 31t-20 57.5t20 57.5q20 24 51 31q6 1 11.5 -2.5t7 -9.5t-2 -11.5t-9.5 -6.5q-21 -5 -34.5 -21.5t-13.5 -37.5
t13.5 -37.5t34.5 -20.5q6 -2 9.5 -7t1.5 -11q-2 -13 -15 -13zM957 4h-3q-31 7 -51 32t-20 57t20 57t51 31q6 2 11.5 -1.5t7 -10t-2 -11.5t-9.5 -7q-21 -4 -34.5 -20.5t-13.5 -37.5t13.5 -37.5t34.5 -21.5q6 -1 9.5 -6.5t1.5 -11.5q-2 -12 -15 -12zM957.5 152q-6.5 0 -11 4.5
t-4.5 10.5v70q0 6 4.5 10.5t11 4.5t11 -4.5t4.5 -10.5v-70q0 -6 -4.5 -10.5t-11 -4.5zM65.5 -44q-6.5 0 -11 4.5t-4.5 11.5v43q0 6 4.5 10.5t11 4.5t11 -4.5t4.5 -10.5v-43q0 -7 -4.5 -11.5t-11 -4.5zM65 600zM65 34zM487 113q5 24 5 58v52h-77q-31 0 -55 -4v39q24 -4 55 -4
h77v25l-21 31h-56q-31 0 -55 -4v39q24 -4 55 -4h36l-81 125q-20 31 -32 46h57q6 -18 25 -49l92 -148l92 148q20 34 25 49h56q-12 -15 -32 -46l-81 -125h37q31 0 55 4v-39q-24 4 -55 4h-56l-21 -31v-25h77q31 0 54 4v-39q-23 4 -54 4h-77v-52q0 -33 4 -58h-49zM66 178z
M65.5 372q-6.5 0 -11 4.5t-4.5 10.5v64q0 6 4.5 10.5t11 4.5t11 -4.5t4.5 -10.5v-64q0 -6 -4.5 -10.5t-11 -4.5zM66 463zM66 464zM66 440q-13 0 -15 12q-2 7 1.5 12t10.5 7q20 4 33.5 20.5t13.5 37.5t-13.5 37.5t-33.5 20.5q-7 2 -10.5 7t-2 11.5t7 10t11.5 1.5
q31 -6 51 -31t20 -57t-20 -57t-51 -31q-2 -1 -3 -1zM66 222q-13 0 -15 12q-2 6 1.5 11.5t10.5 6.5q20 5 33.5 21.5t13.5 37.5t-13.5 37.5t-33.5 20.5q-7 1 -10.5 6.5t-2 12t7 9.5t11.5 2q31 -7 51 -31q20 -25 20 -57.5t-20 -57.5q-20 -24 -51 -31h-3zM66 3q-13 0 -15 13
q-2 6 1.5 11t10.5 7q20 4 33.5 20.5t13.5 37.5t-13.5 37.5t-33.5 21.5q-7 1 -10.5 6.5t-2 11.5t7 9.5t11.5 2.5q31 -7 51 -31q20 -25 20 -57.5t-20 -57.5t-51 -31q-2 -1 -3 -1zM65.5 151q-6.5 0 -11 4.5t-4.5 11.5v69q0 6 4.5 10.5t11 4.5t11 -4.5t4.5 -10.5v-69
q0 -7 -4.5 -11.5t-11 -4.5z" />
    <glyph glyph-name="duanxin" unicode="&#xe66b;" 
d="M877 705h-731q-35 0 -59.5 -24.5t-24.5 -59.5v-466q0 -35 24.5 -59.5t59.5 -24.5h139v-192l213 192h379q34 0 58.5 24.5t24.5 59.5v466q0 35 -24.5 59.5t-58.5 24.5v0v0zM289 370q-23 0 -39.5 16.5t-16.5 39.5t16.5 39t39.5 16t39 -16t16 -39t-16 -39.5t-39 -16.5v0v0z
M512 369q-23 0 -39 16.5t-16 39.5t16 39t39 16t39.5 -16t16.5 -39t-16.5 -39.5t-39.5 -16.5v0v0zM734 368q-23 0 -39.5 16t-16.5 39t16.5 39.5t39.5 16.5t39 -16.5t16 -39.5t-16 -39t-39 -16v0v0zM734 368z" />
    <glyph glyph-name="rmb" unicode="&#xe640;" 
d="M680 279h-140v-55h140q11 0 19.5 -8.5t8.5 -20t-8.5 -19.5t-19.5 -8h-140v-112q0 -12 -8 -20t-20 -8t-20 8t-8 20v112h-140q-11 0 -19.5 8t-8.5 19.5t8.5 20t19.5 8.5h140v55h-140q-11 0 -19.5 8.5t-8.5 20t8.5 19.5t19.5 8h140v56v1.5v0.5l-131 131q-8 9 -8 20.5t8 19.5
t20 8t20 -8l119 -119l119 119q8 8 20 8t20 -8t8 -19.5t-8 -20.5l-131 -131v-0.5v-1.5v-56h140q11 0 19.5 -8t8.5 -19.5t-8.5 -20t-19.5 -8.5z" />
    <glyph glyph-name="kafei" unicode="&#xe676;" 
d="M475 24q111 0 187.5 77.5t94.5 203.5h-586q17 -123 104 -202t200 -79zM757 352v70h-586v-70h586zM908 311q-10 42 -44 71t-85 40q1 -13 1 -23q0 -1 0.5 -23.5t-0.5 -23.5q29 -11 43 -22.5t19 -33.5q10 -45 -27 -87.5t-100 -57.5q-1 0 -8 -1q-19 -30 -43 -55q31 0 60 7
q91 21 145 82t39 127zM171 0q-1 -2 0 -23.5t86 -34t218 -12.5q136 0 220.5 12t84.5 35v23h-609zM525 511q0 -22 -23.5 -37.5t-46.5 -20.5l-24 -4q7 0 18 0.5t39 3.5t49.5 9t39 19t17.5 30q0 21 -28 35t-61.5 20t-61.5 17.5t-28 28.5q0 22 31.5 41t62.5 26l32 8
q-5 0 -12.5 -0.5t-29 -2t-41 -4.5t-43.5 -9.5t-41 -15.5t-29 -23.5t-12 -32.5q0 -25 30 -39.5t66 -18t66 -10.5t30 -20z" />
    <glyph glyph-name="qiche" unicode="&#xe625;" 
d="M974 348q-5 29 -40 48q-1 1 -12 6q27 19 29 21q8 7 7.5 16.5t-9.5 14.5q-10 6 -24 -3q-5 -3 -51 -31l-5 11q-65 140 -67 145q-29 61 -96 61h-194h-194q-71 0 -100 -63q-10 -21 -66 -140q0 -1 -5 -11l-7 3q-34 21 -47 28q-16 10 -27 -3q-11 -14 3 -27l21 -14q0 -1 6 -5
q-3 -2 -10.5 -8t-12.5 -10.5t-9 -8.5q-12 -15 -16 -34q-2 -10 -1.5 -69.5t2.5 -71.5q8 -51 52 -83q2 -2 8 -5t9.5 -6t5.5 -7q2 -3 2 -8t-0.5 -12t-0.5 -10q0 -40 28 -68.5t68 -28.5t68 28.5t28 68.5v24h387v-25q0 -34 22 -61t55 -33q35 -6 66 11t43 50q6 15 6 60q0 8 7 12
q46 23 63 71q1 1 5 17q4 17 4.5 78.5t-1.5 71.5zM256 563q17 36 62 36h172.5h173.5q40 0 50 -1q35 -2 50 -34q10 -21 72 -153v-3q-143 -45 -330 -44q-183 0 -323 45q65 139 73 154zM247 20q-27 -14 -54 1t-29 46q-1 1 -1 30h115q8 -57 -31 -77zM826 21q-27 -15 -54 0t-30 46
v30h114q8 -56 -30 -76zM934 218q-2 -36 -26.5 -59t-60.5 -23h-337q-295 0 -332 -1q-36 0 -64 24.5t-28 66.5v102q0 29 25 46q20 14 69 -4q79 -28 182 -36q96 -8 160 -8q171 0 308 40q12 3 37 12q10 3 25.5 -0.5t23.5 -9.5q19 -15 19 -39q1 -85 -1 -111zM657 252h-146h-147
q-8 0 -13 -2q-14 -3 -14 -18t14 -18q5 -1 13 -2h293q27 0 27 20t-27 20zM199 306q-24 0 -40.5 -16.5t-16.5 -40.5q-1 -24 16 -41t41 -17t41 17t17 41t-16.5 40.5t-41.5 16.5zM817 306q-24 0 -41 -17t-17 -40.5t17 -40.5t41 -17t40.5 17t16.5 41t-16.5 40.5t-40.5 16.5z
M392 576q-12 -9 -13 -9q-13 -12 -64 -61q-40 -38 -49 -46q-14 -14 -1 -27q12 -14 28 -1l7 7q48 46 64 60q22 22 45 44q10 9 5 21t-22 12zM290 504q21 18 45 40q9 9 3 21q-5 11 -20 11l-8 -4q-29 -24 -45 -39q-12 -12 0 -26t25 -3z" />
    <glyph glyph-name="chanpin" unicode="&#xe633;" 
d="M874 -40zM511 748q-91 0 -174 -35.5t-143 -95.5t-95.5 -143t-35.5 -174t35.5 -173.5t95.5 -142.5t143 -95.5t174 -35.5q139 0 254 79l-1 1q12 9 12 25q0 13 -9 22.5t-23 9.5t-24 -11v0q-95 -62 -209 -62q-104 0 -192.5 51.5t-140 140t-51.5 192.5t51.5 192.5t140 140
t192.5 51.5t192.5 -51.5t140 -140t51.5 -192.5q0 -129 -78 -232q-11 -9 -11 -24q0 -13 9.5 -22.5t22.5 -9.5t22 8v0v1q4 3 7 8q91 120 91 270q0 91 -35.5 174t-95.5 143t-142.5 95.5t-173.5 35.5zM285 174l206 -124v243l-206 124v-243zM504 552l-194 -101l201 -126l201 103z
M534 294v-243l201 103v0v243z" />
    <glyph glyph-name="guanyu" unicode="&#xe644;" 
d="M951 391q-17 -20 -43 -20q-21 0 -37 13l-42 35l-317 262l-316 -262l-43 -35q-16 -13 -37 -13q-26 0 -43 20q-15 19 -13 42.5t20 38.5l396 327q15 13 36 13t36 -13l141 -117v11v12v56q0 14 10 24t24 10h34q15 0 25 -10t10 -24v-141v-11v-11l152 -126q18 -15 20 -39
t-13 -42zM809 149v211q2 2 4 4.5t8.5 8t13 7.5t16 -2.5t18.5 -17.5v-312q-3 -6 -8.5 -16t-23.5 -38.5t-37.5 -54.5t-48 -56t-56.5 -50q-17 -11 -33 -20t-24 -12l-8 -3q-4 -2 -10.5 -4.5t-24 -4.5t-31.5 0.5t-26.5 16t-15.5 37.5q0 2 -0.5 6.5t0.5 17t4 24.5t11.5 27t20.5 28
q25 25 100.5 95.5t84.5 76.5q17 14 34 6q27 -13 -15 -66q-13 -16 -33 -35q0 -2 -0.5 -4.5t0 -9.5t3 -9.5t7.5 -5t15 3.5q8 5 15.5 10t13.5 10t10.5 9.5t8 9.5t5.5 8l4 6t2 4q4 5 8 16.5t3 34.5t-15 43zM215 149v211q-2 2 -4 4.5t-8.5 8t-13 7.5t-16 -2.5t-18.5 -17.5v-312
q3 -6 8.5 -16t23.5 -38.5t37.5 -54.5t48 -56t56.5 -50q17 -11 33 -20t24 -12l8 -3q4 -2 10.5 -4.5t24 -4.5t31.5 0.5t26.5 16t15.5 37.5q0 2 0.5 6.5t-0.5 17t-4 24.5t-11.5 27t-20.5 28q-25 25 -100.5 95.5t-84.5 76.5q-17 14 -34 6q-27 -13 15 -66q13 -16 33 -35
q0 -2 0.5 -4.5t0 -9.5t-3 -9.5t-7.5 -5t-15 3.5q-10 5 -18.5 11.5t-14 11.5t-11 11.5t-8 10t-5 8l-2.5 4.5q-4 5 -8 16t-3 34.5t15 43.5zM667 255q-23 -31 -39 -50q-49 -54 -115 -99l-1 1l-0.5 -0.5l-0.5 -0.5q-66 45 -115 99q-16 19 -39 50q-14 19 -22.5 41.5t-8 50
t14.5 49.5q23 38 65 41q25 1 49 -13.5t35.5 -28.5t21.5 -30q10 16 21.5 30t35.5 28.5t49 13.5q42 -3 65 -41q14 -22 14.5 -49.5t-8 -50t-22.5 -41.5z" />
    <glyph glyph-name="shenqing" unicode="&#xe675;" 
d="M596 537h-388q-15 0 -26 11t-11 26.5t11 26.5t26 11h388q15 0 26 -11t11 -26.5t-11 -26.5t-26 -11zM596 241h-388q-15 0 -26 11t-11 26.5t11 26.5t26 11h388q15 0 26 -11t11 -26.5t-11 -26.5t-26 -11zM420 82h-212q-15 0 -26 11t-11 26.5t11 26t26 10.5h212
q15 0 26 -10.5t11 -26t-11 -26.5t-26 -11zM546 378h-338q-15 0 -26 11t-11 26.5t11 26.5t26 11h338q15 0 26 -11t11 -26.5t-11 -26.5t-26 -11zM738 88v-188h-611v777h611v-345l65 56v349h-741v-897h741v298l-65 -50v0zM868 416l-41 -37l88 -80l42 37l-89 80v0zM617 188
l88 -80l201 182l-89 80zM690 94l-89 80l-9 -8l-25 -103l113 23z" />
    <glyph glyph-name="wodexiaodian" unicode="&#xe6c7;" horiz-adv-x="1033" 
d="M0 525zM1004 488v-121q0 -58 -30 -93v-335q0 -51 -37.5 -86.5t-89.5 -35.5h-661q-52 0 -88.5 35.5t-36.5 86.5l-1 335q-31 38 -31 92q0 42 1 61l-1 61l177 304h621zM121 -61q0 -25 19.5 -43t45.5 -18h661q26 0 46.5 18t20.5 43v61h-793v-61v0zM121 61h793v185
q-13 -2 -33 -2q-42 0 -78.5 21.5t-57.5 56.5q-18 -34 -50 -56t-66 -22t-67 19t-46 48q-12 -29 -45.5 -48t-68.5 -19q-33 0 -64.5 20.5t-50.5 53.5q-16 -32 -48 -53t-59 -21q-50 0 -59 3v-186v0zM88 366q0 -30 28 -46t65 -16q34 0 63.5 19.5t29.5 42.5h29q0 -28 31 -44.5
t69 -16.5q35 0 67 19t32 42h29q0 -23 32 -42t66 -19q36 0 68.5 19t32.5 42h29q0 -23 41.5 -42t80.5 -19q63 -1 64 61v0v61h-857v-61v0zM946 488h-1l-145 243h-567l-142 -243h855v0v0zM946 488z" />
    <glyph glyph-name="toupiao" unicode="&#xe628;" 
d="M953 202q14 15 24 52t10 64q0 51 -37 92t-88 41h-210l8 73q8 47 -4 93l-20 80q-9 36 -39.5 59.5t-68.5 23.5h-13q-42 0 -71.5 -29t-29.5 -70v-85v-5l-141 -206h-241v-560h198v58l81 -37q46 -21 96 -21h365q51 0 87.5 35.5t36.5 85.5q0 16 -4 30q34 35 34 83q0 15 -3 30
q33 35 33 83q0 15 -3 30zM164 -76h-66v362h66v-362v0zM835 228h-31q24 0 40.5 -15.5t16.5 -39.5t-16.5 -40.5t-40.5 -16.5h-30q59 0 59 -42q0 -19 -22.5 -28.5t-44.5 -9.5h-22q24 0 41.5 -16.5t17.5 -40t-17 -39t-42 -15.5h-337q-40 0 -68 12l-109 50v300h86l182 249v27
l2 88q0 16 7.5 24.5t14.5 9.5l7 1q14 0 20.5 -9t10.5 -25l14 -78q8 -34 3 -68l-32 -153h290q25 0 42 -11.5t17 -33.5q0 -26 -18.5 -53t-40.5 -27z" />
    <glyph glyph-name="fenxiao" unicode="&#xe674;" 
d="M900 88q-29 89 -90 150q-51 52 -123 82q-66 28 -136 33v48v4q61 11 101.5 59t40.5 111q0 71 -50.5 121.5t-122 50.5t-122 -50.5t-50.5 -121.5q0 -63 40.5 -111t101.5 -59q-1 -2 -1 -4v-48q-70 -5 -137 -33q-71 -30 -123 -82q-60 -61 -89 -150q-43 -9 -71.5 -44t-28.5 -80
q0 -52 37 -89t89 -37t89.5 37t37.5 89q0 42 -25 75.5t-64 45.5q47 125 170 178q56 24 115 29v-205q-41 -10 -68 -44.5t-27 -78.5q0 -52 37 -89t89 -37t89 37t37 89q0 44 -27 78.5t-68 44.5v205q58 -5 113 -28q124 -53 172 -179q-39 -13 -63 -46t-24 -75q0 -52 37 -89t89 -37
t89 37t37 89q0 46 -28.5 81t-72.5 43zM231 -36q0 -27 -19 -46t-46 -19t-46 19t-19 46t19 46t46 19t46 -19t19 -46zM410 575q0 46 32.5 78.5t78.5 32.5t78.5 -32.5t32.5 -78.5t-32.5 -78.5t-78.5 -32.5t-78.5 32.5t-32.5 78.5zM585 -36q0 -27 -19 -46t-46 -19t-46 19t-19 46
t19 46t46 19t46 -19t19 -46zM875 -101q-27 0 -46 19t-19 46t19 46t46 19t46 -19t19 -46t-19 -46t-46 -19z" />
    <glyph glyph-name="jifen" unicode="&#xe670;" 
d="M722 -212q-105 0 -179.5 38.5t-74.5 92.5v336q0 54 74.5 92t179.5 38t179.5 -38t74.5 -92v-336q0 -54 -74.5 -92.5t-179.5 -38.5zM722 329q-46 0 -86 -8.5t-63.5 -20.5t-37 -24t-13.5 -21t13.5 -21.5t37 -24.5t63 -20.5t86 -8.5t86.5 8.5t63.5 20.5t37 24.5t13.5 21.5
t-13.5 21t-37 24t-63.5 20.5t-86 8.5zM922 174q-77 -50 -200 -50t-200 50v-87q0 -9 13.5 -21.5t37 -24.5t63 -20.5t86 -8.5t86.5 8.5t63.5 20.5t37 24.5t13.5 21.5v87zM922 6q-77 -50 -200 -50t-200 50v-87q0 -9 13.5 -21.5t37 -24.5t63 -20.5t86 -8.5t86.5 8.5t63.5 20.5
t37 24.5t13.5 21.5v87zM722 490q-56 -35 -137 -55.5t-173.5 -20.5t-174 20.5t-136.5 55.5v-133q0 -11 12 -25t38.5 -30t62 -29t87.5 -21.5t110 -8.5q4 0 11 0.5t10 0.5v-86h-9h-12q-92 0 -173.5 20.5t-136.5 55.5v-133q0 -11 12 -25t38.5 -30t62 -29t87.5 -21.5t110 -8.5
q4 0 11 0.5t10 0.5v-35q0 -26 19 -50q-20 -1 -40 -1q-107 0 -198 26.5t-144 72.5t-53 100v512q0 54 53 100t144 72.5t198 26.5t198.5 -26.5t144.5 -72.5t53 -100v-200q-40 11 -85 14v63zM411.5 727q-58.5 0 -110.5 -8.5t-87.5 -22t-62 -29t-38.5 -29.5t-12 -25t12 -25
t38.5 -30t62 -29t87.5 -21.5t110.5 -8.5t110.5 8.5t87.5 21.5t61.5 29t38.5 30t12.5 25t-12.5 25t-38.5 29.5t-61.5 29t-87.5 22t-110.5 8.5z" />
    <glyph glyph-name="xiaoxi" unicode="&#xe67a;" 
d="M856 749h-18q-1 -2 -4.5 -1.5t-5.5 -0.5q-62 -16 -66 -83q-35 14 -68 17q-47 5 -99 -8q-100 -24 -192 -104q-4 -4 -16 -15.5t-18.5 -16.5t-17.5 -12.5t-21 -12.5q-32 -14 -105 -29q-63 -13 -80 -19q-42 -15 -49 -59l-1 -5l-1 -1v-4.5t-1 -4.5v-2q2 -7 0 -14v-2q1 0 1 -5
v-6l1 -1q9 -44 20 -72q32 -75 96 -149q97 -112 199 -171q75 -44 139 -46q54 -2 78 29q10 13 18 43q4 15 13 53t15 58q18 59 57 98q67 68 100 148q44 107 19 204q-1 1 -10 30q39 7 58.5 22.5t25.5 46.5q1 1 1 4t1 4v17q2 25 -21 48t-48 22zM714 600q-43 -8 -79 -31.5
t-77 -61.5q-50 -46 -121 -134q-58 -72 -134 -97q-3 -1 -34 -8q-13 -3 -25 5q-35 26 -45 61q0 1 -2 11q-1 8 6 8q66 -2 140 38q55 30 126 97q6 6 23 22t26 24.5t23 20.5t27 21q63 43 136 30l10 -2q1 -2 0 -4zM844.5 627q-16.5 0 -29 12t-12.5 28.5t12 28.5t28.5 12
t28.5 -11.5t12 -28.5t-11.5 -29t-28 -12zM426 -81q-55 26 -114 74q-7 5 -13 -1q-37 -36 -23 -83q12 -44 61 -57h15h15q48 10 63 56q3 8 -4 11z" />
    <glyph glyph-name="zhibo" unicode="&#xe64d;" 
d="M512 730q117 0 216 -57.5t156.5 -156.5t57.5 -216t-57.5 -216t-156.5 -156.5t-216 -57.5t-216 57.5t-156.5 156.5t-57.5 216t57.5 216t156.5 156.5t216 57.5zM512 812q-139 0 -257 -68.5t-186.5 -186.5t-68.5 -257t68.5 -257t186.5 -186.5t257 -68.5t257 68.5
t186.5 186.5t68.5 257t-68.5 257t-186.5 186.5t-257 68.5v0zM328 587q-15 0 -23 -89.5t-8 -197.5t8 -197.5t23 -89.5q21 0 153 61.5t258 133t126 92.5t-126 92.5t-258 133t-153 61.5z" />
    <glyph glyph-name="suotouguan" unicode="&#xe64f;" 
d="M776 389h-58v105q0 84 -60 137.5t-147 53.5t-147 -54t-60 -138v-104h-58q-22 0 -37 -15t-15 -36v-373q0 -21 15 -36t37 -15h530q22 0 36.5 15t14.5 36v373q0 21 -15 36t-36 15zM540 142v-82q0 -7 -7 -7h-44q-7 0 -7 7v82q-35 17 -35 56q0 26 19 45t45 19t45 -19t19 -45
q0 -39 -35 -56zM638 388h-254v113q0 45 37 77t90 32t90 -32t37 -77v-113z" />
    <glyph glyph-name="shoucang" unicode="&#xe662;" 
d="M512 637q-77 73 -183 73q-110 0 -187.5 -77.5t-77.5 -187.5q0 -56 25.5 -117.5t62.5 -112.5t88.5 -103.5t94 -88.5t89 -70.5t62.5 -45t26 -16.5v0q9 6 25 16.5t62.5 45t89 70t94 88.5t88.5 104t62.5 112.5t25.5 117.5q0 110 -77.5 187.5t-187.5 77.5q-105 0 -182 -73v0z
M512 637z" />
    <glyph glyph-name="suotoukai" unicode="&#xe650;" 
d="M792 406h-59v105q0 84 -59.5 137.5t-147 53.5t-147 -54t-59.5 -138v-46l79 1v53q0 45 37.5 77t90 32t90 -32t37.5 -77v-113h-255l-79 1h-59q-21 0 -36 -15t-15 -36v-373q0 -22 15 -37t36 -15h531q21 0 36 15t15 37v373q0 21 -15 36t-36 15zM555 158v-81q0 -7 -7 -7h-43
q-7 0 -7 7v81q-35 18 -35 57q0 26 18.5 44.5t45 18.5t45 -18.5t18.5 -44.5q0 -39 -35 -57z" />
    <glyph glyph-name="xiangce" unicode="&#xe619;" 
d="M481 483h1l2 5l1 3l2 3l2 3l1 4l2 1l1 3l2 2l2 1l1 2l2 2l3 1l1 2l4 1l3 2l1 1l8 2l6 2l8 1l18 2h14h41h63l7 -2l7 -1l4 -2l4 -2l3 -1l1 -2l3 -1l2 -2l2 -1l1 -2h3v-3l2 -2l1 -1l2 -3l2 -2l1 -3l2 -3l1 -3l2 -2l1 -3l2 -8l2 -6l1 -5l2 -9l1 -13l2 -3l5 -2h33l22 2l31 1
l27 2l34 2v-359h-552v359h145v11l5 26v0zM245 810l-10 -1l-7 -2l-8 -1l-7 -2l-8 -1l-3 -2l-6 -2l-3 -1l-2 -2l-1 -1l-3 -2l-2 -1l-2 -2l-1 -2l-2 -1l-1 -3l-2 -3l-1 -2l-2 -3l-2 -2l-1 -4l-2 -7l-1 -9l-2 -8l-1 -14v-43l72 -1l8 -2l3 -1l2 -2l3 -2l3 -1l1 -2l2 -1l3 -2l2 -1
l1 -4l2 -1l1 -2l2 -3l2 -1l1 -4l2 -3l1 -1l2 -3l1 -7l2 -8v-26l-2 -8l-1 -5l-2 -5l-1 -3l-2 -1l-1 -4l-2 -3l-2 -1v-3h-3l-1 -2l-2 -2l-1 -1l-2 -2v-3h-3l-3 -1l-3 -2l-4 -2l-3 -1l-4 -2l-8 -1l-71 -2l-2 -163v-38l2 -2l61 -1l5 -2l3 -1l3 -2l3 -2l4 -1l1 -2l3 -1l2 -2l1 -1
l2 -2l2 -2l1 -3l2 -1l1 -2l2 -3l1 -3l2 -5l2 -3l1 -3l2 -6l1 -8v-10l-1 -9l-2 -5l-1 -5l-2 -3l-2 -5l-1 -3l-2 -1l-1 -2l-2 -1l-1 -2l-2 -2l-2 -3l-1 -1l-3 -2l-2 -1l-1 -2l-2 -2l-3 -1l-3 -2l-7 -1l-6 -2l-60 -1v-177l2 -1l68 -2l6 -1l5 -2l1 -1l3 -2l5 -2l2 -1l1 -2l2 -1
l1 -2l2 -1l1 -2l2 -2l2 -1l1 -3l2 -2l1 -3l2 -2l1 -4l2 -5l2 -5l1 -4v-21l-1 -6l-2 -5l-2 -6l-1 -3l-2 -4l-1 -1l-2 -2l-1 -1l-2 -3l-2 -4l-1 -1l-3 -2l-2 -1l-1 -2l-2 -1l-3 -2l-3 -2l-5 -1l-5 -2l-4 -1l-63 -2l-2 -1v-49l2 -21l1 -9l2 -6l1 -8l2 -6l1 -4l2 -1l2 -3l1 -3
l2 -2l1 -3l2 -2l1 -1l2 -2l2 -1l1 -2l3 -2l2 -1l3 -2l5 -1l3 -2l6 -1l6 -2l8 -2l8 -1l11 -2h663l7 2l5 1l3 2l3 2l5 1l3 2l5 1l2 2l3 1l1 2l2 2l3 1l2 2l3 1l1 2l2 1l1 2l2 2l2 1l1 2l2 1l1 2l2 1l1 4l2 3l2 1l1 2l2 1l1 4l2 1l1 5l2 5l2 3l1 3l2 5l1 4l2 7v852l-2 6l-1 7
l-2 3l-1 3l-2 5l-2 3l-1 5l-2 3l-1 1l-2 2l-1 1l-2 4l-2 1l-1 3l-2 2l-1 1l-2 2l-1 2l-2 1l-2 2l-1 1l-2 2l-1 1l-3 2l-2 2l-2 1h-3v3l-3 2l-5 1l-3 2l-3 2l-3 1l-5 2l-3 1l-3 2l-8 1l-16 2h-608l-38 -2v0zM701 249l-2 -11l-1 -3l-2 -5l-1 -3l-2 -3l-1 -2l-2 -3l-2 -5l-1 -1
l-2 -2l-1 -3l-2 -2l-1 -1l-2 -3l-2 -2l-1 -1l-2 -2l-1 -2l-2 -1l-1 -2l-4 -1l-1 -2l-2 -1l-3 -2l-1 -2l-2 -1l-3 -2l-5 -1l-3 -2l-2 -1l-4 -2l-5 -2l-3 -1l-5 -2h-42l-5 2l-5 1l-5 2l-1 2l-3 1l-5 2l-3 1l-3 2l-2 1l-3 2l-2 2l-1 1l-2 2l-3 1l-1 2l-4 1l-1 4l-2 3l-3 1l-1 2
l-2 1l-2 4l-1 3l-2 1l-1 3l-2 4l-1 3l-2 1l-2 3l-1 7l-2 4l-1 7l-2 6v27l2 8l1 4l2 5l1 8l2 3l2 3l1 2l2 1l1 4l2 3l1 3l2 1l2 2l1 2l2 3l1 1l2 2l1 1l2 2l2 2l3 1l1 2l2 1l3 2l2 1l3 2l1 2l2 1l3 2l3 1l6 2l4 1l4 2l5 2l6 1l11 2h11l11 -2l5 -1l6 -2l4 -2l4 -1l5 -2l3 -1
l3 -2l3 -1l2 -2l2 -2l3 -1l3 -2h3v-3l2 -1l1 -2l2 -2l1 -1l3 -2l2 -3l2 -1l1 -4l2 -1h3v-3l1 -3l2 -5l2 -2l1 -3l2 -3l1 -3l2 -3l1 -5l2 -11l2 -11v-11l-2 -11v0zM572 401l-5 -1l-4 -2l-5 -1l-3 -2l-3 -1l-4 -2l-4 -2l-3 -1l-4 -2l-3 -1v-3h-3l-3 -2l-2 -2l-3 -1l-1 -2
l-2 -1l-1 -2l-4 -1l-1 -2l-2 -2l-1 -1l-2 -2l-1 -1l-2 -2l-2 -1l-1 -2l-2 -2l-1 -3l-2 -1l-1 -2l-2 -3l-2 -2l-1 -1l-2 -2l-1 -4l-2 -4l-1 -1l-2 -3l-2 -3l-1 -4l-2 -3l-1 -6l-2 -3l-2 -5l-1 -6l-2 -6l-1 -10v-36l1 -8l2 -8l1 -5l2 -4l2 -3l1 -8l2 -2l1 -3l2 -3l2 -3l1 -2
l2 -3l1 -5l2 -3l3 -1l2 -4l1 -1l2 -2l1 -3l2 -1l1 -2l2 -2l2 -1l1 -2l2 -1l1 -2l2 -1l1 -2l2 -2l3 -1l2 -2l1 -1l2 -2l3 -1l3 -2l2 -2l1 -1l3 -2l4 -1l3 -2l4 -1l4 -2l3 -2l3 -1l5 -2l4 -1l5 -2l16 -1h36l16 1l6 2l3 1l5 2l3 1l3 2l3 2l7 1l1 2l3 1l3 2l2 1l2 2l3 2l3 1l3 2
l2 3l3 1l1 2l2 2l3 1l2 3l1 2l2 1l1 2l2 2l3 1l2 5l1 1l2 4l3 1l1 3l2 3l2 2l1 5l2 3l1 3l2 3l1 2l2 3l2 5l1 7l2 5l1 8l2 8v38l-2 8l-1 6l-2 6l-1 8l-2 5l-2 3l-1 1l-2 4l-1 3l-2 3l-1 5l-2 1l-2 3l-1 2l-2 1l-1 2l-2 3l-1 2l-2 3l-2 1l-1 2l-2 2l-1 1l-2 2l-1 1l-2 2l-2 1
l-1 2l-2 2l-3 1l-1 2l-2 3l-3 1l-3 2l-3 2l-2 1l-2 2l-3 1l-3 2l-3 1l-5 2l-3 2l-3 1l-3 2l-5 1l-3 2l-6 1l-16 2h-35l-17 -2v0zM76 674l-4 -2l-2 -2l-3 -1l-5 -2l-3 -1l-1 -3l-2 -2l-2 -2l-1 -1l-2 -2l-1 -1l-2 -2l-1 -5l-2 -3l-2 -3l-1 -5l-2 -7v-11l2 -8l1 -7l2 -3l2 -1
l1 -7l2 -1l1 -2l2 -1l3 -2l2 -1l1 -4l2 -1l3 -2l1 -1l5 -2l5 -2l6 -1h147l4 1l5 2l5 2l3 1l1 2l2 1l2 2l1 2l2 1l3 2l1 3l2 1l2 5l1 2l2 3l1 5l2 4v21l-2 8l-1 4l-2 2l-1 3l-2 5l-3 1l-2 3l-1 2l-2 2h-3v3l-3 1l-3 2l-3 1l-2 2l-5 2l-6 1h-145zM73 40l-3 -2l-5 -1l-4 -2
l-2 -2l-1 -1l-4 -2l-1 -1l-2 -2l-1 -1l-2 -2l-1 -3l-2 -2l-2 -3l-1 -3l-2 -2l-1 -4l-2 -5v-22l2 -6l1 -5l2 -2l1 -3l2 -1l2 -4l1 -1l2 -2l1 -1l2 -2l1 -1l2 -2l2 -2l1 -1l3 -2l7 -1l1 -2l8 -1h140l6 1l4 2l6 1l3 2v3h3l2 2l1 1l2 2l1 1l2 2l2 3l1 2l2 3l1 1l2 4l1 3l2 6v20
l-2 7l-1 4l-2 2l-1 3l-2 3l-1 2l-2 3l-2 2l-1 1l-2 2l-1 1l-3 2l-2 1l-2 2l-4 2l-5 1l-3 2l-10 1h-130zM59 343l-3 -1l-5 -2l-3 -1v-4h-3l-5 -1l-1 -2l-2 -1l-1 -3l-2 -2v-3h-3l-2 -3l-1 -2l-2 -5l-1 -7v-26l1 -7l2 -4l1 -3l2 -1l1 -2l2 -2l2 -1l1 -3l2 -2l3 -1l1 -2l4 -2
l1 -1l2 -2l3 -1l5 -2h152l5 2l1 1l4 2l3 1l1 2l2 2l3 1l2 2l1 1l2 2l1 1l2 4l2 3l1 3l2 3l1 3l2 8v16l-2 8l-1 3l-2 5l-1 3l-2 3l-2 1l-1 2l-2 2l-1 1l-2 2l-1 1l-2 2l-2 1l-3 2l-3 2l-3 1l-2 2l-6 1l-11 2h-126zM53 370h82v186h-82v-186zM53 55h82v170h-82v-170zM849 444
h33v-356h-548v356h109h35l1 13l2 15v11l-5 -26v-11h-145v-359h552v359zM53 556h82v-186h-82v186v0zM50 368h86v189h-86v-189zM53 225h82v-170h-82v170v0zM50 54h86v173h-86v-173z" />
    <glyph glyph-name="fanhuidingbu1" unicode="&#xe639;" 
d="M512 748q-122 0 -225 -60t-163 -163t-60 -225t60 -225t163 -163t225 -60t225 60t163 163t60 225t-60 225t-163 163t-225 60zM712 147q-17 0 -32 9l-2 -2l-166 146l-162 -145l-2 1q-15 -8 -32 -8q-27 0 -46.5 19t-19.5 47q0 17 8 32l-2 2l11 10q5 6 11 10l188 169h2
q18 18 44.5 18t45.5 -18h1l191 -169q6 -4 11 -9l12 -10l-3 -3q9 -15 9 -32q0 -28 -19.5 -47.5t-47.5 -19.5z" />
    <glyph glyph-name="gouwuche" unicode="&#xe65b;" horiz-adv-x="1025" 
d="M1003 477q-10 13 -25 13h-755l-47 169q-6 23 -30 24l-112 3q-14 1 -24 -8.5t-10 -23t9 -23.5t23 -10l88 -3l175 -628v-1q1 -5 4 -9l1 -1q2 -4 6 -7h1q4 -3 8 -5h1q4 -1 10 -1v0v0h554q11 0 20 7t12 19l97 458q4 15 -6 27v0v0zM937 424l-24 -115v1h-631l-28 114h683v0v0z
M885 179h-570l-17 65h601l-14 -65v0v0zM351 31l-20 82h540l-17 -82h-503v0v0zM449 -67q-29 0 -49.5 -21.5t-20.5 -51.5t20.5 -51t49.5 -21t49.5 21t20.5 51t-20.5 51.5t-49.5 21.5zM777 -67q-29 0 -49.5 -21.5t-20.5 -51.5t20.5 -51t49.5 -21t49.5 21t20.5 51.5t-20.5 51.5
t-49.5 21v0z" />
    <glyph glyph-name="pingjia" unicode="&#xe65c;" 
d="M183 198q56 12 111.5 -3t99.5 -57q21 -21 35.5 -47.5t22.5 -55t8.5 -58t-5.5 -55.5q-55 -13 -111.5 6t-99.5 62q-44 42 -59 98t-2 110v0zM832 198q13 -54 -2.5 -110t-58.5 -98q-21 -21 -49.5 -35.5t-60 -23t-65.5 -11t-66 -1.5h-47v306q-48 5 -88 26q-32 16 -58.5 40.5
t-45 54.5t-29 65t-10.5 73q0 52 20 100q39 -10 72 -30t59 -48q7 55 36 101t73 77q45 -31 74 -78.5t36 -103.5q26 29 59 49.5t72 30.5q19 -46 19 -98q0 -37 -10 -72t-29 -65t-45 -54.5t-58 -40.5v-1q-23 -11 -47 -18t-50 -9v-219q10 34 30 64.5t47 56.5q21 21 48.5 37t57 26
t59.5 12.5t57 -3.5v0z" />
    <glyph glyph-name="zhutishangyiqu" unicode="&#xe686;" 
d="M865 433zM512 -147q-91 0 -174 35.5t-143 95.5t-95.5 142.5t-35.5 173.5t35.5 174t95.5 143t143 95.5t174 35.5t174 -35.5t142.5 -95.5t95 -143t35.5 -174t-35.5 -173.5t-95 -142.5t-142.5 -95.5t-174 -35.5zM683.5 395.5q0.5 96.5 -82.5 47.5t-167 -97q-23 -12 -33 -25
v114q0 12 -9 21t-21.5 9t-21.5 -9t-9 -21v-269q0 -13 9 -21.5t21.5 -8.5t21.5 8.5t9 21.5v110q10 -13 33 -25q83 -48 166.5 -97t83 48t0 193.5z" />
    <glyph glyph-name="zhutixiayiqu" unicode="&#xe687;" 
d="M865 433zM512 748q91 0 174 -35.5t142.5 -95.5t95 -143t35.5 -174t-35.5 -173.5t-95 -142.5t-142.5 -95.5t-174 -35.5t-174 35.5t-143 95.5t-95.5 142.5t-35.5 173.5t35.5 174t95.5 143t143 95.5t174 35.5zM339.5 205.5q-0.5 -96.5 83 -48t167.5 96.5q22 13 33 26v-114
q0 -13 9 -21.5t21.5 -8.5t21.5 8.5t9 21.5v269q0 12 -9 21t-21.5 9t-21.5 -9t-9 -21v-111q-11 13 -33 26q-84 48 -167.5 97t-83 -48t0 -193.5z" />
    <glyph glyph-name="ren" unicode="&#xe63e;" 
d="M724 496q4 -2 8 -5l8 -5v-10q1 -43 -10 -70q-11 -26 -30 -37q-16 -56 -36 -89q-28 -47 -73 -64q-23 -8 -88 -7q-63 1 -84 10q-41 19 -66 66q-17 30 -32 83q-21 11 -31 37q-12 27 -11 71v10l8 5l6 4q-8 83 -1 125.5t37 76.5q40 32 108 44t135.5 1t108.5 -41q40 -38 49 -88
t-6 -117v0zM552 170l2 -26l-16 -25l22 -140l87 188l133 4q51 -47 80.5 -144t21.5 -174h-742q5 226 106 314l120 -1l112 -186l22 139l-16 25l2 26q33 2 66 0v0zM652 536q-123 -24 -194 16q-13 7 -44.5 -3t-43.5 -9q-13 -27 -19 -57l-3 -17l-17 2q-5 0 -10 -1q-2 -1 -5 -2
q1 -29 8 -46q7 -16 18 -19l10 -3l3 -10q15 -55 31 -84q19 -36 49 -50q13 -6 68 -7q59 -1 75 5q33 13 54 48q18 31 34 88l2 10l10 3q11 4 17 20q7 17 8 45q-3 1 -5 2q-5 1 -9 1l-17 -1l-3 16q-5 28 -17 53z" />
    <glyph glyph-name="zhaoshangjiameng" unicode="&#xe641;" 
d="M139 489l216 -69l-5 -13l81 -5l-20 -21l-68 4l-51 -156l29 -18l2 10q27 -6 28 -14q0 -3 -2 -13l2 -1l-3 -6l-5 -14q-15 2 -21 12v2l-37 22l-6 -20l-215 70l75 230v0zM671 428l6 -18l-62 -19l-62 29l-91 -8l-55 -52q5 -22 18 -22q6 0 16 7t17 14l7 7l66 -3l133 -78v0v0
l2 -1q5 -5 0.5 -22t-12.5 -19l-102 48l-9 -20l84 -39q0 -4 -1 -8q-1 -5 -4 -10q-4 -5 -9 -7l-102 48l-9 -20l89 -42q3 -2 -2 -12.5t-11 -13.5l-96 45l-10 -19l76 -36q1 -4 -3 -14t-10 -13l-54 26q2 12 1 15q0 4 -7.5 8t-15.5 5l-7 2q-1 -7 -2 -15l-11 5l-1 -2q3 19 2.5 24
t-10.5 10t-20 7l-9 2q-2 -6 -3 -15.5t-2.5 -32t2.5 -25.5q4 -6 11.5 -10.5t12.5 -5.5l6 -1q3 13 6 27l14 -7q0 -12 2 -17q3 -4 8.5 -7.5t10.5 -4.5l4 -1q2 8 4 17l53 -25l3 -1h3q13 3 22.5 14t10.5 25l4 -1l3 -2l3 1q15 3 25 16q7 11 8 23l2 1q16 3 25 17h1l90 23l4 -15
l226 64l-62 218l-227 -64v0zM361 217q0 -4 -1 -10.5t-2 -23t2 -18.5q2 -4 7.5 -7t9.5 -4l4 -1q1 5 2.5 12t4 21t2 17.5t-7.5 7t-14 5.5z" />
    <glyph glyph-name="gengduo" unicode="&#xe636;" 
d="M578 -83l-64 64l319 319l-319 319l64 64l382 -383zM64 -19l318 319l-318 319l64 64l382 -383l-382 -383z" />
    <glyph glyph-name="anlifenxi" unicode="&#xe634;" 
d="M171 812h467q17 0 28 -11l285 -283q11 -11 11 -28v0v-595q0 -46 -32 -75v0v0q-30 -30 -75 -30h-684q-43 0 -75 32v0q-32 25 -32 73v812q0 43 32 75q30 30 75 30v0zM668 296v0v0q66 -66 66 -156q0 -93 -66 -156q-66 -66 -156 -66q-44 0 -85.5 18t-70.5 48v0
q-66 66 -66 156q0 93 66 156l2 2q65 64 155.5 63t154.5 -65v0zM243 396v0q-9 0 -16 7t-7 16.5t7 16.5t16 7h86q9 0 16 -7t7 -16.5t-7 -16.5t-16 -7h-86v0zM243 492v0q-9 0 -16 7t-7 16.5t7 16.5t16 7h275q10 0 17 -7t7 -16.5t-7 -16.5t-17 -7h-275v0zM243 586v0q-9 0 -16 7
t-7 16.5t7 16.5t16 7h275q10 0 17 -7t7 -16.5t-7 -16.5t-17 -7h-275v0zM535 313v0v-160l139 -79q13 32 13 66q0 69 -49 122l-2 2q-43 39 -101 49v0zM649 33v0l-148 86q-15 7 -15 21v173q-55 -6 -98 -49l-2 -2q-51 -52 -51 -124.5t51 -123.5v0q51 -51 123.5 -51t124.5 51
q6 7 15 19v0zM881 464v0h-179q-35 0 -64 26v2q-26 29 -26 62v179h-441q-14 0 -20 -8q-8 -6 -8 -18v-812q0 -14 8 -20v0q9 -8 20 -8h684q11 0 20 8v0q8 9 8 20v569h-2zM841 511v0l-182 182v-139q0 -16 11 -30l2 -2q13 -13 30 -13h139v2z" />
    <glyph glyph-name="12chuangjianchanpin" unicode="&#xe618;" 
d="M455 435q0 -37 -26.5 -63t-62.5 -26h-203q-37 0 -63 26t-26 63v203q0 37 26 63t63 26h203q37 0 63 -26t26 -63v-203zM953 435q0 -37 -26 -63t-63 -26h-203q-37 0 -63 26t-26 63v203q0 37 26 63t63 26h203q37 0 63 -26t26 -63v-203zM452 -62q0 -37 -26 -63t-63 -26h-203
q-37 0 -63 26t-26 63v203q0 37 26 63t63 26h203q37 0 63 -26t26 -63v-203zM950 -62q0 -37 -26 -63t-63 -26h-203q-36 0 -62.5 26t-26.5 63v203q0 37 26.5 63t62.5 26h203q37 0 63 -26t26 -63v-203z" />
    <glyph glyph-name="qiaquan" unicode="&#xe656;" 
d="M20 465q0 31 10 44t43 13h139v-574h-60q-24 0 -47 1t-32 1q-29 -2 -41 9.5t-12 44.5v165q0 12 4 18.5t16 8.5q4 0 11.5 3.5t15 11t13 19.5t5.5 29q0 27 -13.5 42t-28.5 17q-12 2 -17.5 7.5t-5.5 17.5v122v0v0zM110 574v30q0 23 17 42.5t36 19.5h149v-92h-202v0v0z
M991 325q-9 -2 -12.5 -9.5t-3.5 -17t3.5 -18t12.5 -12t13.5 -13.5t5 -21.5t-2.5 -22t-10 -15.5q-21 -13 -21 -30.5t21 -34.5q5 -4 8.5 -13t3.5 -18t-4 -16t-15 -7h-59q-6 0 -6.5 1t1.5 4t5.5 6.5t5.5 7.5q5 17 -0.5 28t-18.5 20q-8 4 -12 14t-3.5 20t4 18t9.5 12
q9 3 13.5 12.5t4.5 19.5t-3.5 18.5t-9.5 12.5q-9 5 -14 14t-5 20.5t4.5 22.5t14.5 18q6 4 10.5 12t5 17.5t-3.5 18t-13 14.5q-11 5 -16 16t-5 22.5t5 22t13 15.5q19 11 20.5 28.5t-2.5 32.5q-4 12 -13.5 21t-24.5 9h-519v91h609q7 0 12.5 -6t7 -14t-1 -16.5t-10.5 -14.5
q-6 -5 -11 -14.5t-5.5 -19t2.5 -19.5t12 -14q12 -7 18 -19t6 -24t-6 -22.5t-17 -15.5q-12 -4 -17.5 -13t-6 -19t4.5 -20t16 -17t15.5 -18t4 -22.5t-5 -21.5t-14.5 -11v0v0zM850 342q-13 -3 -20 -13t-7.5 -20t5.5 -20.5t18 -15.5q11 -4 16.5 -13.5t6 -19.5t-4 -19.5
t-13.5 -13.5q-27 -14 -28 -33.5t21 -31.5q10 -4 16 -14t6.5 -20.5t-4 -19.5t-14.5 -12q-13 -4 -20 -13t-7.5 -19.5t5.5 -20.5t19 -17q9 -5 12.5 -14.5t2.5 -19t-6 -17t-13 -7.5h-566v574h572q9 0 14 -7.5t5.5 -16.5t-4 -18t-14.5 -12.5t-15.5 -11.5t-7 -18t4 -19t18.5 -14
q10 -4 16 -13.5t6.5 -19t-4.5 -18t-16 -12.5v0v0zM590 265q-5 0 -11 1.5t-3 6.5q1 2 10 16t21 30q11 15 21 29q9 14 12 17q5 9 -7 22q-2 2 -8.5 6.5t-11.5 7.5q-9 3 -13 1t-9 -10q-2 -4 -11 -17q-7 -11 -18 -28q-9 -14 -18 -27q-8 -12 -9 -15q-2 -4 -8 -3t-8 6q-2 2 -10 13
q-9 11 -19 25q-9 13 -18 25t-13 17q-10 20 -20 13q-8 -5 -14 -10t-11 -9q-11 -8 -3 -20q17 -23 32 -43q10 -13 23 -31q10 -15 13 -17q2 -5 -5 -5h-13h-15q-11 -1 -19 0q-9 0 -14.5 -4.5t-3.5 -11.5q2 -4 2 -13v-14q0 -6 3 -6.5t7 -0.5h63q13 0 13 -6v-22q0 -5 -2 -5h-73
q-6 1 -8 -3.5t-3.5 -10.5t0.5 -11q1 -5 1 -9q0 -15 14 -15h64q6 0 7 -1.5t1 -7.5q1 -6 1 -20q-1 -16 -1 -20q0 -13 14 -13h35q8 0 8 6v46q0 11 10 11h10q7 0 16.5 1t17.5 1h14q16 0 16 11v25q0 11 -11 11h-63q-11 -3 -11 4v9q-1 5 -1 9.5t4 7t8 2.5h64q11 0 11 8v27
q0 5 -4 9.5t-9 4.5h-37v0v0zM590 265z" />
    <glyph glyph-name="jifenshangcheng" unicode="&#xe671;" 
d="M218 -43q0 -24 16.5 -40.5t39.5 -16.5h181v380h-239l2 -323v0zM637 -100h181q23 0 39.5 16.5t16.5 40.5l2 323h-239v-380v0zM176 320h279v160h-223q-23 0 -39.5 -16.5t-16.5 -39.5v-104v0zM637 480v-160h279v104q0 23 -16.5 39.5t-39.5 16.5h-223v0zM494 480h104v-580
h-104v580v0zM376 520h340q12 0 27.5 6.5t31.5 19t27 35.5t11 52q0 30 -19 48.5t-51 18.5t-71 -20t-73 -55q-23 22 -54 22q-30 0 -52 -21q-34 34 -73 54t-71 20t-51 -18.5t-19 -48.5q0 -29 11 -52t27 -35.5t31.5 -19t27.5 -6.5v0zM635 580q26 29 56.5 45.5t51.5 16.5
q8 0 10.5 -6t1.5 -12q-3 -18 -19 -33.5t-25 -18.5h-72q-3 0 -4 3t0 5v0zM349 642q21 0 51.5 -16.5t56.5 -45.5q1 -2 0 -5t-4 -3h-72q-9 3 -25 18.5t-19 33.5q-1 6 1.5 12t10.5 6v0zM349 642z" />
    <glyph glyph-name="xiangpian" unicode="&#xe61a;" 
d="M31 651v-701h964v701h-964zM73 -9v619h881v-536l-124 162l-47 -67l-153 313l-85 -174l-34 36l-98 -231l-66 48l-98 -135l705 1v-36h-881zM934 54l-631 -1l50 69l71 -51l96 224l33 -35l77 159l148 -304l53 75zM251 466zM159 466q0 38 27 65t65.5 27t65 -27t26.5 -65
t-26.5 -65t-65 -27t-65.5 27t-27 65z" />
    <glyph glyph-name="yuyin1" unicode="&#xe64c;" horiz-adv-x="1046" 
d="M386 795q65 20 132.5 17t131.5 -21t122 -54t105.5 -82.5t81.5 -106t49 -125.5q35 -126 -1 -256.5t-129 -222.5q-89 -96 -263 -149q-197 -27 -332 50q-137 67 -215.5 206.5t-65.5 290.5q14 160 122 287t262 166v0zM345 758q-69 -23 -129 -69t-101.5 -106t-67 -130.5
t-26 -143.5t21.5 -146q35 -132 142.5 -225t247.5 -127q48 -4 108.5 -0.5t106.5 19.5q125 35 219.5 134t125.5 228q36 203 -52 344q-41 76 -109.5 134t-149 87.5t-168.5 32.5t-169 -32v0zM520 543q10 7 29 23.5t28 24.5q53 -68 83 -133t30 -135q11 -89 -23 -175.5
t-100 -152.5q-8 9 -24.5 25.5t-23.5 24.5q101 131 101 246q7 123 -100 252v0zM404 423l49 51q84 -98 76 -183q2 -33 -10.5 -68t-27.5 -57t-41 -55q-7 9 -23.5 29t-24.5 30q3 4 14.5 21t16 24.5t12 22t10 27t2.5 26.5q2 17 -4 37t-11 30.5t-20 35t-18 29.5v0zM273 294
q41 41 84 79q27 -58 33 -81q-2 -9 -7 -20t-9.5 -17.5t-13 -18.5t-11.5 -16q-52 48 -76 74v0z" />
    <glyph glyph-name="yuyue" unicode="&#xe6c5;" 
d="M512 -212q-104 0 -199 40.5t-163.5 109t-109 163.5t-40.5 199t40.5 199t109 163.5t163.5 109t199 40.5t199 -40.5t163.5 -109t109 -163.5t40.5 -199t-40.5 -199t-109 -163.5t-163.5 -109t-199 -40.5zM512 770q-95 0 -182 -37.5t-150 -100.5t-100.5 -150t-37.5 -182
t37.5 -182t100.5 -150t150 -100.5t182 -37.5t182 37.5t150 100.5t100.5 150t37.5 182t-37.5 182t-100.5 150t-150 100.5t-182 37.5zM683 111q-8 0 -15 6l-171 168q-10 10 -4 24l129 290q4 8 12 11t16 -0.5t11 -11.5t-1 -16l-123 -277l161 -158q6 -6 6 -15t-6 -15t-15 -6z
M512 675q-9 0 -15 6t-6 15v86q0 9 6 15t15 6t15 -6t6 -15v-86q0 -9 -6 -15t-15 -6zM512 -203q-9 0 -15 6t-6 15v86q0 9 6 15t15 6t15 -6t6 -15v-86q0 -9 -6 -15t-15 -6zM994 279h-86q-9 0 -15 6t-6 15t6 15t15 6h86q9 0 15 -6t6 -15t-6 -15t-15 -6zM116 279h-86q-9 0 -15 6
t-6 15t6 15t15 6h86q9 0 15 -6t6 -15t-6 -15t-15 -6z" />
    <glyph glyph-name="icon1" unicode="&#xe608;" 
d="M960 341q0 108 -60 199.5t-163 144.5t-224.5 53t-225 -53t-163.5 -144.5t-60 -199.5q0 -142 101.5 -251t255.5 -138q-29 -43 -71 -73q29 -8 60 -8q51 0 96.5 21t77.5 57q161 23 268.5 134t107.5 258zM306.5 512q21.5 0 36.5 -15.5t15 -37t-15 -36.5t-36.5 -15t-37 15
t-15.5 36.5t15.5 37t37 15.5zM510 53q-104 0 -177 73.5t-73 176.5v8h500v-8q0 -103 -73 -176.5t-177 -73.5zM714.5 408q-21.5 0 -37 15t-15.5 36.5t15.5 37t37 15.5t36.5 -15.5t15 -37t-15 -36.5t-36.5 -15z" />
    <glyph glyph-name="icon1" unicode="&#xe69a;" 
d="M974 26h-162v-172q0 -10 -7 -17.5t-18 -7.5h-34q-10 0 -17.5 7.5t-7.5 17.5v172h-161q-11 0 -18 7.5t-7 18.5v35q0 10 7 17.5t18 7.5h161v172q0 11 7.5 18.5t17.5 7.5h34q11 0 18 -7.5t7 -18.5v-172h162q10 0 17.5 -7.5t7.5 -17.5v-35q0 -11 -7.5 -18.5t-17.5 -7.5v0v0z
M313 749h498q83 0 141.5 -59.5t58.5 -144.5v-278q0 -11 -6 -18.5t-12 -8.5l-6 -2v0h-20q-10 0 -15.5 7.5t-6.5 14.5l-1 7v87h-864v-321q1 -5 4 -14t14.5 -31t25 -39.5t37.5 -31.5t52 -14h373q3 0 7.5 -1t11.5 -7t7 -15v-25q0 -11 -6 -17.5t-13 -7.5l-6 -1h-374
q-83 0 -141.5 60t-58.5 144v307v103v204v103zM80 684v-201v-63h868v126v0q0 34 -12 61t-29.5 40.5t-35 22.5t-29.5 12l-12 2h-530h-54h-53h-113z" />
    <glyph glyph-name="jiaoyijilu" unicode="&#xe67c;" 
d="M96 460q-40 0 -68 28t-28 68t28 68t68 28t68 -28t28 -68t-28 -68t-68 -28zM96 588q-13 0 -22.5 -9.5t-9.5 -22.5t9.5 -22.5t22.5 -9.5t22.5 9.5t9.5 22.5t-9.5 22.5t-22.5 9.5zM96 204q-40 0 -68 28t-28 68t28 68t68 28t68 -28t28 -68t-28 -68t-68 -28zM96 332
q-13 0 -22.5 -9.5t-9.5 -22.5t9.5 -22.5t22.5 -9.5t22.5 9.5t9.5 22.5t-9.5 22.5t-22.5 9.5zM96 -52q-40 0 -68 28t-28 68t28 68t68 28t68 -28t28 -68t-28 -68t-68 -28zM96 76q-13 0 -22.5 -9.5t-9.5 -22.5t9.5 -22.5t22.5 -9.5t22.5 9.5t9.5 22.5t-9.5 22.5t-22.5 9.5z
M1024 460h-768v64h704v64h-704v64h768v-192zM1024 204h-768v64h704v64h-704v64h768v-192zM1024 -52h-768v64h704v64h-704v64h768v-192z" />
    <glyph glyph-name="shangpinfenlei" unicode="&#xe609;" 
d="M114 98q-13 0 -22.5 -9.5t-9.5 -22.5t9.5 -22t22.5 -9t22.5 9t9.5 22t-9.5 22.5t-22.5 9.5zM305 543h635q13 0 22 9t9 22t-9 22.5t-22 9.5h-635q-14 0 -23 -9.5t-9 -22.5t9 -22t23 -9zM114 352q-13 0 -22.5 -9.5t-9.5 -22.5t9.5 -22t22.5 -9t22.5 9t9.5 22t-9.5 22.5
t-22.5 9.5zM940 352h-635q-14 0 -23 -9.5t-9 -22.5t9 -22t23 -9h635q13 0 22 9t9 22t-9 22.5t-22 9.5zM114 606q-13 0 -22.5 -9.5t-9.5 -22.5t9.5 -22t22.5 -9t22.5 9t9.5 22t-9.5 22.5t-22.5 9.5zM940 98h-635q-14 0 -23 -9.5t-9 -22.5t9 -22t23 -9h635q13 0 22 9t9 22
t-9 22.5t-22 9.5z" />
    <glyph glyph-name="xuanzhonggou" unicode="&#xe659;" 
d="M342 -55l-342 342l63 63l279 -279l607 607l63 -63l-670 -670v0z" />
    <glyph glyph-name="kafeiting" unicode="&#xe677;" 
d="M726 612q16 3 26 11t10 19t-10 19t-26 11q-4 10 -13 10t-13 -10q-16 -3 -26 -11t-10 -19t10 -19t26 -11q-2 -6 -3 -14h-214v-11h-13v-58h-11v-15q-40 -4 -70 -23.5t-40 -46.5h265q-10 27 -40 46.5t-70 23.5v15h-11v50h204q4 -24 16.5 -24t15.5 24h30v19h-30q-1 8 -3 14z
M687 228q6 0 10 4t4 10t-4 10.5t-10 4.5h-137q-12 13 -30 22q36 11 63.5 42t39.5 74h7q6 0 10.5 4t4.5 10t-4.5 10t-10.5 4h-298q-5 0 -9.5 -4t-4.5 -10t4.5 -10t9.5 -4h8q12 -43 39.5 -74t63.5 -42q-18 -9 -30 -22h-137q-6 0 -10 -4.5t-4 -10.5t4 -10t10 -4h9v-273h-9
q-6 0 -10 -4.5t-4 -10.5q0 -7 6 -11v-11h427v11q6 4 6 11q0 6 -4 10.5t-10 4.5h-9v273h9zM607 139q7 0 12.5 -5t5.5 -13v-116q0 -7 -5.5 -12t-12.5 -5h-251q-7 0 -12.5 5t-5.5 12v116q0 8 5.5 13t12.5 5h251zM355 5l252 -1q1 0 1 1v116l-252 1zM481.5 87q9.5 0 16.5 -7
t7 -16.5t-7 -16.5t-16.5 -7t-16.5 7t-7 16.5t7 16.5t16.5 7z" />
    <glyph glyph-name="xianshizhekou" unicode="&#xe66e;" horiz-adv-x="1025" 
d="M896 812h-768q-53 0 -90.5 -37.5t-37.5 -90.5v-768q0 -53 37.5 -90.5t90.5 -37.5h768q53 0 90.5 37.5t37.5 90.5v768q0 53 -37.5 90.5t-90.5 37.5zM386 72q-10 -87 -127 -42q-20 10 -13 32q8 15 30 10q60 -27 63 23v132q-21 -7 -40 -12q-27 -10 -43 -15q-30 -8 -37 15
q-3 27 25 35q45 10 95 30v142h-83q-12 0 -18.5 6.5t-6.5 19.5q0 22 25 25h83v104q0 23 22.5 23t24.5 -23v-105h78q20 -2 22 -25q-2 -25 -22 -25h-78v-120q33 16 65 36q23 9 35 -8q8 -23 -10 -35q-40 -25 -90 -48v-175zM799 350h-73v-328q-2 -22 -25 -22q-22 2 -22 25v325
h-108q-7 -218 -112 -307q-23 -16 -45 2q-15 17 7 35q58 57 78 123q22 60 22 187v120q0 37 40 42q108 5 195 23q30 5 38 -20q5 -30 -25 -35q-94 -15 -183 -20q-17 -5 -17 -20v-80h230q25 -3 27 -25q-2 -25 -27 -25z" />
    <glyph glyph-name="iconfontchongzhi" unicode="&#xe67b;" 
d="M171 -212v0q-57 0 -97 40t-40 97v750q0 57 40 97t97 40h682q57 0 97 -40t40 -97v-136h-68v136q0 29 -20 49t-49 20h-682q-29 0 -49 -20t-20 -49v-750q0 -29 20 -49t49 -20h682q29 0 49 20t20 49v136h68v-136q0 -57 -40 -97t-97 -40h-682v0zM696 487q-10 10 -10 24t10 24
t24.5 10t24.5 -10l235 -236q11 -10 10 -26q1 -15 -10 -25l-235 -236q-10 -10 -24.5 -10t-24.5 10t-10 24t10 24l179 179h-263q-14 0 -24 10t-10 24.5t10 24.5t24 10h263l-179 179v0v0zM291 208v52h-101q-31 0 -31 23t31 26h70l-118 181q-3 0 -6 6q-6 8 -6 23q0 20 26 26
q20 -3 34 -20l133 -199l132 199q12 17 35 20q23 -6 26 -26q0 -9 -9 -23q-3 -3 -3 -6l-118 -181h69q29 -3 32 -26q-3 -23 -32 -23h-101v-52h101q29 -3 32 -26q-3 -23 -32 -23h-101v-115q-2 -28 -31 -28q-32 0 -32 28v115h-101q-31 0 -31 23t31 26h101v0zM681 245z" />
    <glyph glyph-name="wodeyuding" unicode="&#xe645;" 
d="M960 588v64q0 40 -28 68t-68 28h-64v64h64q66 0 113 -47t47 -113v-64h-64v0zM960 300q0 -125 -63.5 -230t-169.5 -163l105 -119h-96l-86 86q-68 -22 -138 -22t-138 22l-86 -86h-96l105 119q-106 58 -169.5 163t-63.5 230q0 91 35.5 174t95.5 143t143 95.5t174 35.5
t174 -35.5t143 -95.5t95.5 -143t35.5 -174v0zM512 684q-104 0 -192.5 -51.5t-140 -140t-51.5 -192.5t51.5 -192.5t140 -140t192.5 -51.5t192.5 51.5t140 140t51.5 192.5t-51.5 192.5t-140 140t-192.5 51.5v0zM736 268h-224q-13 0 -22.5 9.5t-9.5 22.5v256q0 13 9.5 22.5
t22.5 9.5t22.5 -9.5t9.5 -22.5v-224h192q13 0 22.5 -9.5t9.5 -22.5t-9.5 -22.5t-22.5 -9.5v0zM160 748q-40 0 -68 -28t-28 -68v-64h-64v64q0 66 47 113t113 47h64v-64h-64v0z" />
    <glyph glyph-name="liuyan1" unicode="&#xe6a5;" 
d="M890 -212h-763q-52 0 -89.5 37.5t-37.5 89.5v763q0 54 38 94t90 40h512v-64h-512q-26 0 -45 -21.5t-19 -48.5v-763q0 -26 18.5 -44.5t44.5 -18.5h763q27 0 48.5 19t21.5 45v512h64v-512q0 -52 -40.5 -90t-93.5 -38v0zM510 96q-12 -12 -33 -16l-278 -138
q-23 -10 -38.5 5.5t-6.5 39.5l138 279q4 20 16 33l494 494q19 19 45.5 19t44.5 -19l113 -112q18 -19 18 -45t-18 -45l-495 -495v0zM215 26q-6 -11 2.5 -19.5t19.5 -3.5l172 104l-90 91l-104 -172v0zM375 231l68 -67l1 -2l1 -1h1v0v-1h1v-1h1v-1l1 -1h1v-1l1 -1h1l1 -1v-1
l1 -1h1l1 -1l1 -1v-1l1 -1l1 -1l1 -1l1 -1l1 -1l1 -1l1 -1l1 -1l360 360l-113 112l-359 -359q10 -11 22 -23v0zM937 658l-67 68q-10 9 -23 9t-22 -9l-66 -66l111 -114l67 67q10 10 10 23t-10 22v0z" />
    <glyph glyph-name="iconfontshousuo" unicode="&#xe669;" 
d="M397 130h560v-69h-560v69zM397 130h560v-69h-560v69zM397 336h560v-69h-560v69zM397 336h560v-69h-560v69zM397 542h560v-69h-560v69zM397 542h560v-69h-560v69zM278 427l-213 -122l213 -123v245z" />
    <glyph glyph-name="androidcreate" unicode="&#xe654;" 
d="M128 76v-160h160l471 471l-160 160zM883 511q13 13 13 30t-13 30l-100 100q-13 13 -30 13t-30 -13l-79 -79l160 -160z" />
    <glyph glyph-name="androidhappy" unicode="&#xe6b0;" 
d="M512 716q-173 0 -294.5 -122t-121.5 -294t121.5 -294t294.5 -122t294.5 122t121.5 294t-122 294t-294 122zM512 -33q-90 0 -166.5 45t-121.5 121.5t-45 166.5t45 166.5t121.5 121.5t166.5 45t166.5 -45t121.5 -121.5t45 -166.5t-45 -166.5t-121.5 -121.5t-166.5 -45z
M657.5 342q26.5 0 44.5 17.5t18 44.5t-18 44.5t-44.5 17.5t-44.5 -17.5t-18 -44.5t18 -44.5t44.5 -17.5zM366.5 342q26.5 0 44.5 17.5t18 44.5t-18 44.5t-44.5 17.5t-44.5 -17.5t-18 -44.5t18 -44.5t44.5 -17.5zM512 71q72 0 129.5 40.5t82.5 105.5h-424q25 -65 82.5 -105.5
t129.5 -40.5z" />
    <glyph glyph-name="ribbonb" unicode="&#xe69f;" 
d="M512 668q-73 0 -124.5 -51.5t-51.5 -124.5t51.5 -124.5t124.5 -51.5t124.5 51.5t51.5 124.5t-51.5 124.5t-124.5 51.5zM512 748q-106 0 -181 -75t-75 -181t75 -181t181 -75t181 75t75 181t-75 181t-181 75zM512 300q-80 0 -136 56t-56 136t56 136t136 56t136 -56t56 -136
t-56 -136t-136 -56zM294 304l-166 -292h192l96 -160l96 212l67 148q-33 -8 -67 -8q-64 0 -120.5 26.5t-97.5 73.5zM730 304q-47 -54 -112 -80l-90 -196l80 -176l96 160h192z" />
    <glyph glyph-name="qiandaojifen" unicode="&#xe61c;" horiz-adv-x="1025" 
d="M513 -212q-104 0 -199 40q-92 39 -163 110t-110 162q-40 95 -40 199t40 199q39 92 110 163t163 110q95 40 199 40t199 -40q92 -39 162.5 -110t109.5 -163q40 -95 40 -199t-40 -199q-39 -91 -109.5 -162t-162.5 -110q-95 -40 -199 -40v0zM513 795q-101 0 -193 -39
t-158.5 -105.5t-105.5 -158.5t-39 -192.5t39 -192.5t105.5 -158.5t158.5 -106t192.5 -39.5t192.5 39.5t158.5 106t106 158.5t39.5 192.5t-39.5 192.5t-106 158.5t-158.5 105.5t-192 39v0zM780 379v0v111v0v5q0 43 -82 71q-77 25 -185.5 25t-185.5 -25q-82 -28 -82 -71v-5v0
v-392h1q6 -39 81 -64q77 -25 185.5 -25t185.5 25q75 25 82 64v0v3v4v0v132v4v0v134v4v0zM280 520q18 14 53 26q74 24 179.5 24t180.5 -24q34 -12 52 -26q17 -13 17 -25.5t-17 -25.5q-18 -14 -52 -25q-75 -25 -180.5 -25t-179.5 25q-35 11 -53 25q-16 13 -16 25.5t16 25.5v0z
M264 457q21 -19 63 -33q77 -26 185.5 -26t185.5 26q42 14 63 33v-81q-1 -11 -16 -22q-18 -15 -52 -26q-75 -25 -180.5 -25t-179.5 25q-35 11 -53 26q-16 13 -16 25v78v0zM264 341q21 -19 63 -33q77 -26 185.5 -26t185.5 26q42 14 63 33v-102q-1 -11 -16 -23q-18 -14 -52 -26
q-75 -25 -180.5 -25t-179.5 25q-35 12 -53 26q-16 13 -16 25v100v0zM745 80q-18 -14 -52 -26q-75 -25 -180.5 -25t-179.5 25q-35 12 -53 26q-16 13 -16 25v99q21 -20 63 -34q77 -25 185.5 -25t185.5 25q42 14 63 33v-100q-1 -11 -16 -23v0zM745 80z" />
    <glyph glyph-name="caidandaohang" unicode="&#xe60a;" 
d="M570 528h242v-244h-242v244zM570 224h242v-244h-242v244zM241 224h242v-244h-242v244zM175 292h308v310h-308v-310zM223 554h212v-213h-212v213zM917 812h-810q-44 0 -75 -31t-31 -75v-812q0 -44 31 -75t75 -31h810q43 0 74 31t31 75v812q0 44 -31 75t-74 31zM959 -106
q0 -17 -12.5 -29.5t-29.5 -12.5h-810q-17 0 -29.5 12.5t-12.5 29.5v812q0 17 12.5 29.5t29.5 12.5h810q17 0 29.5 -12.5t12.5 -29.5v-812z" />
    <glyph glyph-name="iconjifenshangchengfenlei" unicode="&#xe672;" 
d="M109 514h132v-726h-132v726zM109 812h132v-115h-132v115zM26 669h301v-130h-301v130zM778 514h133v-726h-133v726zM778 812h133v-115h-133v115zM696 669h300v-130h-300v130zM458 812h132v-726h-132v726zM458 -97h132v-115h-132v115zM372 61h300v-130h-300v130z" />
    <glyph glyph-name="xiaoshouqushi" unicode="&#xe65e;" 
d="M147 172h-96q-23 0 -37 -15.5t-14 -35.5v-211q0 -25 14 -41.5t37 -16.5h96q19 0 32 15.5t13 35.5v218q0 20 -13 35.5t-32 15.5zM128 -65q0 -19 -32 -19t-32 19v154q0 19 32 19t32 -19v-154zM403 364h-96q-23 0 -37 -15.5t-14 -35.5v-403q0 -25 14 -41.5t37 -16.5h96
q19 0 35 16t16 35v410q-5 21 -19 36t-32 15zM384 -65q0 -19 -32 -19t-32 19v346q0 19 32 19t32 -19v-346zM909 428h-96q-23 0 -37 -15.5t-14 -35.5v-467q0 -25 13.5 -41.5t37.5 -16.5h96q19 0 35 16t16 35v474q-5 21 -19 36t-32 15zM890 -65q0 -19 -32 -19t-32 19v410
q0 19 32 19t32 -19v-410zM659 236h-96q-23 0 -37 -15.5t-14 -35.5v-275q0 -25 14 -41.5t37 -16.5h96q19 0 32 15.5t13 35.5v282q0 20 -13 35.5t-32 15.5zM640 -65q0 -19 -32 -19t-32 19v218q0 19 32 19t32 -19v-218zM64 223l288 250l205 -141q8 -12 19.5 -13t18.5 4t7 9
l294 314v-58q0 -14 9 -23t23 -9t23 9t9 23v128q0 14 -9 23t-23 9h-128q-14 0 -23 -9t-9 -23t9 -23t23 -9h45l-269 -282l-205 141v0q-9 10 -22 10t-23 -10l-307 -269q-9 -9 -9 -25t9 -26q23 -11 45 0z" />
    <glyph glyph-name="icon1" unicode="&#xe667;" 
d="M866 736q40 0 67 -27t27 -67v-708q0 -40 -27 -67t-67 -27h-708q-40 0 -67 27t-27 67v708q0 40 27 67t67 27h708zM191 639q-34 3 -30 -34q2 -20 5 -45q3 -24 6 -51q3 -26 6 -50.5t5 -43.5q2 -20 12 -23t23 9q8 9 19.5 20t18.5 18q10 10 20.5 4.5t23.5 -18.5
q20 -20 34 -33.5t29 -27.5q15 -16 26 -19.5t26 10.5q11 12 15 16l13 14q16 16 11 30t-15 23q-21 21 -36.5 35t-35.5 35q-9 10 -12.5 17.5t6.5 17.5q8 8 18.5 19.5t19.5 19.5q12 13 6.5 23.5t-27.5 12.5t-46 5q-24 2 -49 5q-24 4 -49 6q-22 3 -43 5v0zM438 138q16 16 18 28.5
t-14 27.5l-15 15l-14 14q-16 15 -28.5 8.5t-21.5 -15.5q-21 -22 -37.5 -39t-37.5 -38q-10 -9 -15.5 -10.5t-15.5 7.5q-8 8 -21 20t-21 21q-13 12 -23.5 6.5t-12.5 -27.5q-2 -21 -5 -46l-6 -50q-3 -24 -5 -48q-3 -24 -4 -43q-3 -34 32 -30q22 2 46 5q26 4 51 6q26 3 50.5 6
t44.5 5q19 2 22 12t-10 23q-7 8 -16.5 18t-16.5 17q-10 10 -6.5 18t16.5 22l36 36t30 31v0zM833 -66q34 -3 30 33q-2 20 -5 45t-6 52q-3 26 -6 50.5t-5 43.5q-2 20 -12 23t-23 -10q-8 -7 -18 -16.5t-17 -16.5q-10 -10 -20 -5t-24 20q-20 19 -36 34q-16 16 -31 30
q-16 16 -28.5 18t-26.5 -13q-12 -11 -15.5 -15t-13.5 -15q-16 -15 -9.5 -28t16.5 -22l38 -38q17 -16 38 -37q9 -10 12.5 -17.5t-5 -16t-20.5 -21.5t-21 -22q-13 -12 -7 -22.5t28 -12.5t46 -5q24 -2 49 -6q24 -3 49 -5q23 -3 43 -5v0zM864 609q2 18 -6.5 25.5t-26.5 5.5
q-21 -2 -46 -5q-24 -3 -51 -6q-26 -3 -50 -6q-25 -3 -44 -5q-20 -2 -23 -12.5t10 -23.5q8 -7 18.5 -18.5t17.5 -17.5q10 -10 4.5 -20t-18.5 -25q-20 -19 -35 -34t-29 -30q-15 -16 -18 -27.5t11 -25.5q11 -12 15.5 -15.5t14.5 -13.5q16 -16 30 -10.5t23 14.5q21 21 36 38
q15 16 36 37q10 9 17.5 12t17.5 -6q8 -8 19.5 -18.5t20.5 -18.5q12 -14 22.5 -8.5t12.5 28.5q2 21 5 46q2 24 6 49q3 25 6 48zM864 609z" />
    <glyph glyph-name="dongtai" unicode="&#xe646;" 
d="M392 665q-2 -3 -10.5 -14t-14.5 -20.5t-10 -19.5q-11 -29 -15 -62.5t4 -63.5q3 -8 13.5 -21t13.5 -20q-1 -3 -4.5 -7t-3.5 -6q-21 -2 -33 10.5t-23 35.5q-10 56 1 110q10 47 38 84q12 16 21 22t23.5 8.5t21.5 -6.5q8 -17 -22 -30zM654 427q2 11 17 18q25 50 17.5 99.5
t-38.5 88.5q-2 3 -10.5 11.5t-13.5 15t-4 11.5q0 9 10.5 13t21.5 -2q14 -7 45 -55q28 -42 30 -88q1 -30 -5 -62t-17 -44q-10 -10 -25 -13.5t-28 7.5zM757 390q3 13 14.5 33t13 23t6 16.5t9.5 20.5q1 8 5 23t5 21q1 12 1 27t-0.5 23t-3 27t-3.5 23q-3 6 -11 22.5t-15 23.5
q-8 9 -28 18.5t-28 15.5q0 4 2 8.5t2 5.5q11 7 33 4q35 -19 47 -28q24 -27 35.5 -67.5t8.5 -85.5q-3 -54 -43 -130q-4 -5 -35 -27q-2 2 -7.5 2t-7.5 1zM271 408q-4 -5 -15.5 -1t-14.5 3q-5 4 -16.5 11t-15.5 10q-31 37 -33 74q-3 45 0 57q10 52 35 94q0 1 3 2.5t3.5 3t1 4.5
t1.5 5q2 3 8 9.5t9 9.5q2 3 6 11.5t7 12.5q1 1 6 4.5t7 5.5t6 7t6.5 7.5t7.5 6t9 3t11 -2.5q14 -8 6 -23.5t-21 -18.5q1 -9 -7 -9q-3 -9 -14 -22.5t-14 -19.5q-3 -4 -7.5 -10.5t-6.5 -10.5q-3 -6 -7 -19.5t-5.5 -16.5t-4.5 -7t-3 -6q-19 -52 -2 -98q5 -12 23 -31t22 -33
q1 -1 3.5 -1.5t3 -1.5l1.5 -3t1 -6zM571 423q6 -19 9 -41.5t6 -60t4 -46.5q3 -24 9.5 -69t9.5 -62q6 -47 13.5 -131t9.5 -107q-1 -5 -7 -9t-7 -5q-1 -3 4.5 -9.5t4.5 -11.5q-1 -9 -19.5 -13.5t-36.5 -4.5q-41 -1 -63 2q-6 1 -29 5t-37 6q-55 8 -76 26q-2 0 -7 1t-8 2t-5 3
q3 44 28 183q5 26 21 100q1 4 7.5 36.5t10.5 48.5q2 9 8 28t8 24q7 26 39 110q-42 16 -61.5 56t3.5 85q18 28 54 43q26 10 61 10q45 0 75 -32t32 -75q1 -18 -9 -43q-9 -21 -9 -22q-5 -6 -21.5 -14.5t-21.5 -12.5zM523 588q-13 -13 -24.5 -29.5t-26 -38t-21.5 -32.5
q-10 3 -3 21q3 6 14 18.5l11 12.5q2 11 14.5 24t15.5 23q-16 -1 -24.5 -12t-15.5 -26t-16 -21q-3 -16 -13 -21q13 -28 27 -35q11 24 38 62t35 53q0 1 -11 1zM549 582q-19 -18 -44 -60t-36 -56q4 -10 20 -12q0 21 20 47t24 35q6 2 15 16.5t20 9.5q-7 -10 -23.5 -33t-28 -40.5
t-21.5 -35.5q2 -1 5 -1.5t7 0t6 -0.5q14 32 33 51q2 4 6.5 12t7 12.5t8 9.5t11.5 8q3 -6 -4 -16t-7 -17q-22 -25 -38 -61q2 -1 19 -1q8 7 17.5 27.5t16.5 27.5l5 2.5t5 6.5q-8 54 -44 69zM435 528q3 7 13.5 21.5t14.5 24.5q-14 -3 -22.5 -17.5t-5.5 -28.5zM498 397
q1 4 7.5 9t6.5 10q-5 5 -9 0.5t-5 -11t0 -8.5zM534 416q-5 -6 -19 -20t-21.5 -22.5t-15 -23.5t-8.5 -30q11 9 30 36q3 4 10.5 10.5t9.5 9.5q1 1 2 4.5t2 4.5t3.5 1.5l2.5 0.5q11 10 9 29h-5zM537 381q0 -3 -5 -4q-5 -9 -29 -39q-5 -7 -17 -18t-17 -17q-7 -9 -10.5 -18
t-6.5 -23.5t-5 -21.5q7 6 13.5 13.5t14.5 18t11 14.5q5 6 18.5 21.5t22.5 27t16 22.5q1 17 -2 24h-4zM539 299q11 16 8 32l-1 1t-3 1q-23 -24 -35 -45q-8 -5 -14.5 -12t-15 -18t-13.5 -17l-4.5 -4.5t-4.5 -5t-4 -5t-4 -5t-3.5 -5t-3.5 -5.5l-2.5 -5t-2.5 -5.5t-1.5 -5.5
t-0.5 -6q20 17 53.5 55.5t51.5 54.5zM529 270l-7.5 -7.5l-8.5 -8.5q-4 -5 -13 -12.5t-13 -11.5q-1 -1 -1 -4t-1 -4q-1 -2 -4.5 -3t-4.5 -2q-4 -4 -10 -12.5t-9 -11.5l-2 -0.5t-3 -0.5q-2 -3 -9 -12t-12 -12q-12 -34 -9 -47q62 69 106 120q2 3 8.5 10t9 10.5t4.5 10.5t1 15
q-1 0 -1.5 1t-0.5 2q-6 -2 -9 -4.5t-6 -8t-5 -7.5zM550 248q-23 -29 -68.5 -78t-62.5 -68q0 -7 -5 -19.5t-4 -18.5q4 2 7 5.5t6 8t6 7.5q0 1 2.5 1.5t3.5 0.5q5 5 13 17.5t11 15.5q0 1 3 1.5t3 1.5q7 6 17 19.5t13 17.5q3 3 9 7t8 6q1 2 3 6.5t4 7.5t9 8t9 9q1 1 2.5 5
t2.5 5t5 5.5t6 7t4 6.5t1 7.5t-5 7.5h-3zM555 207q-17 -19 -48 -53t-56.5 -62t-46.5 -54q0 -6 -3.5 -18t-3.5 -17q16 5 26 26q31 30 50 58q16 14 42.5 48t43.5 48q7 12 1 24h-5zM562 168q-1 -3 -9 -6q-5 -11 -20.5 -26t-17.5 -17t-3.5 -6t-3 -6t-5.5 -4t-5 -4
q-7 -7 -20.5 -24.5t-21.5 -26.5q-1 -1 -8 -8.5t-9.5 -10.5t-8.5 -10t-8.5 -11.5t-6 -10.5t-5.5 -11q-4 -4 -9.5 -12t-8.5 -11q-5 -11 -5 -30q3 1 6 3t4 3.5t3 5.5t2 5q8 7 15 15t15.5 19t13.5 16q9 11 25 31.5t20 25.5l11 11t10 12q1 1 1.5 4t1.5 5q2 3 7.5 8t7.5 7
q3 3 6.5 10t5.5 10q3 3 9.5 9t9.5 9.5t6 11t-1 14.5h-4zM397 -81q-2 0 -4 3.5t-6 3.5q-4 -3 0 -15q7 1 9.5 1t8 -2t8.5 -3q112 131 160 199q-1 2 -1.5 13t-4.5 13q-22 -30 -81.5 -100.5t-88.5 -112.5zM530 -5q6 7 17 23.5t17 24.5q1 1 4 5t4 5t3 4t2.5 4.5l1.5 4.5t0 5.5
l-2 5t-4 5.5q0 -1 -6 -2q-17 -27 -57 -74t-57 -74q-2 0 -4.5 -2l-2.5 -2q-2 -3 -8.5 -11.5t-6.5 -14.5q3 -3 22 -4q11 19 42.5 55.5t34.5 41.5zM498 -94q2 1 4 3t2.5 4t2 5.5t1.5 4.5q13 16 56 70q2 2 6.5 7.5t6 8t4 7.5t3 8t-0.5 7.5t-4 8.5q-3 -4 -33 -41.5t-43 -59.5
q-24 -18 -30 -43q3 0 10.5 -2t12.5 -1q0 3 1 6.5t1 6.5zM585 -33q4 16 -1 28q-15 -12 -35 -41.5t-30 -39.5q-1 -5 -5 -12.5t-5 -11.5q6 -3 25 -4q28 55 51 81zM550 -114q12 -3 18.5 2t12 15t9.5 13v16.5t-1 15.5q-2 0 -4 1q-4 -8 -17.5 -28t-17.5 -35z" />
    <glyph glyph-name="jiahao" unicode="&#xe61f;" 
d="M896 351h-326v326q0 18 -12.5 30.5t-30.5 12.5t-30.5 -12.5t-12.5 -30.5v-326h-326q-18 0 -30.5 -12.5t-12.5 -30.5t12.5 -30.5t30.5 -12.5h326v-326q0 -18 12.5 -30.5t30.5 -12.5t30.5 12.5t12.5 30.5v326h326q18 0 30.5 12.5t12.5 30.5t-12.5 30.5t-30.5 12.5zM532 667
z" />
    <glyph glyph-name="xiezhu" unicode="&#xe685;" 
d="M335 466q26 16 42 43t16 60q0 49 -34.5 83.5t-84 34.5t-84 -34.5t-34.5 -83.5q0 -33 15.5 -60.5t43.5 -42.5q-49 -18 -82.5 -57.5t-41.5 -91.5h365q-7 52 -40 91.5t-81 57.5zM811 61q27 17 43 44t16 59q0 50 -35 84.5t-84.5 34.5t-84 -34.5t-34.5 -84.5q0 -33 16 -60.5
t43 -42.5q-49 -17 -82.5 -57t-40.5 -91h365q-8 51 -41 91t-81 57zM490 591h161v-43h-161v43zM368 -43h162v-44h-162v44zM800 429h43v119v43h-43h-119v-43h119v-119v0zM208 75h-44v-118v-44h44h118v44h-118v118zM164 283h44v-162h-44v162zM417 591h43v-43h-43v43zM800 391h43
v-74h-43v74z" />
    <glyph glyph-name="likeyuyue" unicode="&#xe63f;" 
d="M811 343l-470 -555l73 469h-201l470 555l-73 -469h201z" />
    <glyph glyph-name="shuoming" unicode="&#xe6a0;" 
d="M512 812q-139 0 -257 -68.5t-186.5 -186.5t-68.5 -257t68.5 -257t186.5 -186.5t257 -68.5t257 68.5t186.5 186.5t68.5 257t-68.5 257t-186.5 186.5t-257 68.5zM512 -125q-115 0 -213 57t-155 155t-57 213t57 213t155 155t213 57t213 -57t155 -155t57 -213t-57 -213
t-155 -155t-213 -57zM468 20h88v366h-88v-366v0zM466 505h92v92h-92v-92z" />
    <glyph glyph-name="jinrixiaoshoue" unicode="&#xe660;" 
d="M512 812q-139 0 -257 -68.5t-186.5 -186.5t-68.5 -257t68.5 -257t186.5 -186.5t257 -68.5t257 68.5t186.5 186.5t68.5 257t-68.5 257t-186.5 186.5t-257 68.5zM725 343v-86h-170v-85h170v-85h-170v-128h-86v128h-170v85h170v85h-170v86h85l-85 256h85l85 -256h86l85 256
h85l-85 -256h85z" />
    <glyph glyph-name="leijijiaoyie" unicode="&#xe65f;" 
d="M993 133q29 83 29 167q0 104 -40 198t-108 162t-162.5 108.5t-197.5 40.5q-105 0 -199.5 -40.5t-162.5 -108.5t-108.5 -162t-40.5 -198t40.5 -198t108.5 -162t162 -108.5t198 -40.5q93 0 182 34q-4 5 -6 15q-83 -32 -176 -32q-100 0 -191.5 39t-157.5 105.5t-105.5 157.5
t-39.5 191.5t39.5 192t105.5 157.5t157.5 105t191.5 39t191.5 -39t157.5 -105t105.5 -157.5t39.5 -191.5q0 -81 -26 -159q-3 1 -11 1q-16 0 -28 -11.5t-12 -28.5t11.5 -28t28.5 -11q16 0 28 11t12 28q-3 19 -16 29zM795 109h-307q-21 -27 -57 -47h364q10 0 17 7t7 17
q0 9 -7 16t-17 7zM414 491h382q11 0 18 7t7 17.5t-7 17.5t-18 7h-382q-10 0 -17 -7t-7 -17.5t7 -17.5t17 -7zM795 181h-272q-8 -30 -20 -48h292q10 0 17 7.5t7 17.5q0 9 -7 16t-17 7zM509 228q0 69 -49 118t-117.5 49t-117.5 -49t-49 -118t49 -117.5t117.5 -48.5t117.5 48.5
t49 117.5zM437 230h-84v-42h84v-21h-84v-41h-20v41h-84v21h84v42h-84v21h58l-36 51l16 12l37 -51l-17 -12h71l-17 12l36 49l17 -12l-36 -49h58v-21h1zM795 395h-364q33 -19 57 -48h307q10 0 17 7.5t7 17.5q0 9 -7 16t-17 7zM795 253h-268q2 -8 2 -25q0 -15 -2 -24h268
q10 0 17 7t7 17t-7 17.5t-17 7.5zM795 467h-382q-11 0 -18 -7.5t-7 -17.5t7 -17t18 -7h382q10 0 17 7t7 17t-7 17.5t-17 7.5zM795 324h-292q13 -21 20 -47h272q10 0 17 7t7 18q0 9 -7 15.5t-17 6.5z" />
    <glyph glyph-name="anli1" unicode="&#xe6a6;" 
d="M211 750h411q15 0 24 -10l252 -249q9 -10 9 -25v0v-524q0 -40 -28 -65v0v0q-26 -27 -66 -27h-602q-38 0 -66 28v0q-28 22 -28 64v716q0 37 28 65q26 27 66 27v0v0v0zM648 295v0v0q58 -58 58 -137q0 -82 -58 -137q-58 -58 -137 -58q-39 0 -75 15.5t-62 42.5v0
q-58 58 -58 137q0 82 58 137l2 2q56 56 136 55.5t136 -57.5v0v0v0zM275 384v0q-9 0 -15 6t-6 14.5t6 14.5t15 6h75q8 0 14 -6t6 -14.5t-6 -14.5t-14 -6h-75v0v0v0zM275 468v0q-9 0 -15 6t-6 14.5t6 14.5t15 6h242q8 0 14 -6t6 -14.5t-6 -14.5t-14 -6h-242v0v0v0zM275 551v0
q-9 0 -15 6t-6 14.5t6 14.5t15 6h242q8 0 14 -6t6 -14.5t-6 -14.5t-14 -6h-242v0v0v0zM532 310v0v-140l122 -70q11 28 11 58q0 61 -43 107l-2 2q-38 35 -88 43v0v0v0zM631 64v0l-129 75q-13 7 -13 19v152q-49 -5 -87 -43l-2 -2q-45 -45 -45 -108.5t45 -109.5v0
q46 -45 109.5 -45t108.5 45q6 6 13 17v0v0v0zM836 444v0h-158q-30 0 -56 22v2q-23 26 -23 54v158h-388q-12 0 -17 -7q-8 -5 -8 -15v-716q0 -11 8 -17v0q7 -7 17 -7h602q10 0 17 7v0q8 8 8 17v502h-2v0v0zM800 485v0l-159 159v-122q0 -13 9 -26l2 -2q11 -11 26 -11h122v2v0v0
zM800 485z" />
    </font>
</defs>
</svg>
